<svg width="67" height="64" viewBox="0 0 67 64" fill="none" xmlns="http://www.w3.org/2000/svg">
<path d="M20.7459 59.6776L20.1373 61.625L22.1776 61.625L28.0987 61.625L28.9301 61.625L29.3707 60.92L43.7327 37.9408L59.1842 37.9408C62.4699 37.9408 65.125 35.2857 65.125 32C65.125 28.7143 62.4699 26.0592 59.1842 26.0592L43.7327 26.0592L29.3707 3.08L28.9301 2.375L28.0987 2.375L22.1776 2.375L20.1373 2.375L20.7459 4.32241L27.5387 26.0592L14.0461 26.0592L10.0553 20.7382L9.60527 20.1382L8.85527 20.1382L4.41447 20.1382L2.42588 20.1382L2.97219 22.0502L5.81497 32L2.97219 41.9498L2.42588 43.8618L4.41447 43.8618L8.85526 43.8618L9.60526 43.8618L10.0553 43.2618L14.0461 37.9408L27.5387 37.9408L20.7459 59.6776Z" stroke="white" stroke-width="3"/>
</svg>
