<svg xmlns="http://www.w3.org/2000/svg" width="256" height="256"><path fill="#1976D2" fill-opacity=".016" fill-rule="evenodd" d="M0 128.004v128.004l128.25-.254 128.25-.254.254-127.75L257.008 0H0v128.004m.485.496c0 70.4.119 99.053.265 63.672.146-35.38.146-92.98 0-128C.604 29.153.485 58.1.485 128.5"/><path fill="#1976D2" fill-opacity=".295" fill-rule="evenodd" d="M47.087 38.755 26.674 54.483l4.639.778c2.552.427 14.59.656 26.753.508l22.113-.269-6.799-5.447-6.798-5.447 3.459-.914c1.902-.503 8.409-.664 14.459-.356 43.061 2.186 83.449 26.811 98.531 60.073 3.158 6.964 5.969 19.232 5.969 26.049 0 2.498.169 4.542.375 4.542s6.998-3.749 15.092-8.332l14.718-8.331 17.04 8.866c9.372 4.876 17.256 8.649 17.521 8.385.668-.668-3.367-13.673-6.298-20.303-12.827-29.003-47.258-56.565-88.379-70.746-28.89-9.963-62.478-12.272-86.711-5.96-3.104.808-5.843 1.269-6.088 1.025-.407-.407 1.177-9.679 2.366-13.854.274-.962.131-1.744-.319-1.736-.449.007-10.003 7.091-21.23 15.741m-36.631 22.5c-.295.767-.405 5.636-.246 10.82.233 7.582.583 9.425 1.79 9.425 1.065 0 1.648-1.449 2.009-5l.51-5 .661 4.371c1.282 8.463 4.093 8.015 6.291-1.002l1.308-5.369.11 6.25c.086 4.84.449 6.25 1.611 6.25 1.242 0 1.5-1.889 1.5-11V60h-2.453c-1.983 0-2.653.719-3.494 3.75-.573 2.063-1.044 4.613-1.047 5.667-.009 3-.991 1.275-2.305-4.049-.948-3.842-1.676-4.935-3.455-5.188-1.255-.178-2.492.298-2.79 1.075m18.993.018c-.269.7-.367 11.381-.219 23.737.246 20.475.425 22.494 2.02 22.8 1.628.313 1.75-1.348 1.75-23.737C33 63.122 32.801 60 31.469 60c-.843 0-1.752.573-2.02 1.273m5.551.681C35 63.47 35.648 64 37.5 64c2.469 0 2.5.104 2.5 8.441 0 5.115.438 8.712 1.112 9.128 1.953 1.207 2.857-1.861 2.873-9.749.014-7.199.156-7.701 2.265-8 1.237-.176 2.25-.995 2.25-1.82 0-1.156-1.548-1.568-6.75-1.796-6.23-.273-6.75-.138-6.75 1.75m15.429-.629c-.28.729-.378 5.566-.219 10.75.233 7.582.583 9.425 1.79 9.425 1.05 0 1.592-1.276 1.807-4.25.41-5.663 2.567-5.561 5.298.25 1.163 2.475 2.53 4.5 3.037 4.5 1.87 0 2.094-3.283.457-6.715-1.52-3.188-1.534-3.699-.142-5.238 2.086-2.304 1.947-6.371-.286-8.392-2.269-2.054-10.987-2.299-11.742-.33m17.548 8.592c-1.716 5.523-2.836 10.502-2.489 11.063 1.062 1.719 2.499 1.143 3.694-1.48.829-1.82 1.919-2.5 4.003-2.5 2.135 0 3.106.636 3.815 2.5 1.025 2.696 2.76 3.288 3.556 1.214.272-.707-.81-5.545-2.404-10.75-2.345-7.657-3.295-9.524-4.977-9.777-1.824-.275-2.459.914-5.198 9.73M54 66.5c0 2.282.366 2.591 2.75 2.316 1.978-.227 2.75-.878 2.75-2.316 0-1.438-.772-2.089-2.75-2.316-2.384-.275-2.75.034-2.75 2.316m18 1.918c0 .78-.273 2.13-.607 3C70.952 72.567 71.392 73 73 73c1.608 0 2.048-.433 1.607-1.582-.334-.87-.607-2.22-.607-3 0-.78-.45-1.418-1-1.418s-1 .638-1 1.418M15 88c-3.653 3.653-2.15 7.697 4 10.758 3.934 1.958 4.619 4.583 1.318 5.053-1.396.198-2.58-.432-3.286-1.75C15.68 99.533 13 99.345 13 101.777c0 3.355 2.915 6.224 6.307 6.208 3.765-.018 4.984-.708 6.567-3.714 2.01-3.817.352-7.284-4.512-9.435C16.583 92.722 15.497 90 19.433 90c1.576 0 2.662.724 3.084 2.055.755 2.378 2.826 2.09 3.321-.462C26.763 86.82 18.815 84.185 15 88m21.429-.675c-.28.729-.378 5.566-.219 10.75.233 7.582.583 9.425 1.79 9.425 1.106 0 1.631-1.54 2-5.861l.5-5.862 2.756 5.645c4.931 10.102 7.705 8.634 7.729-4.09.017-9.02-.512-11.332-2.592-11.332-1.05 0-1.4 1.661-1.422 6.75l-.029 6.75-3.721-6.741c-3.591-6.506-5.726-8.213-6.792-5.434m18.019-.05c-.29.756-.397 5.616-.238 10.8l.29 9.425h5.986c4.906 0 6.047-.316 6.324-1.75.281-1.461-.419-1.75-4.237-1.75-4.181 0-4.573-.209-4.573-2.44 0-2.096.527-2.483 3.742-2.75 2.615-.217 3.841-.837 4.073-2.06.272-1.435-.403-1.75-3.742-1.75C58.421 95 58 94.748 58 92.557c0-2.158.494-2.478 4.25-2.75 2.974-.215 4.25-.757 4.25-1.807 0-2.08-11.272-2.759-12.052-.725m17.219-.608C71.3 87.033 71 92.016 71 97.74c0 9.371.174 10.374 1.75 10.075 1.282-.243 1.833-1.484 2.061-4.637.38-5.274 1.822-5.089 5.014.645 2.372 4.262 5.179 5.58 5.17 2.427-.003-.963-.812-3.078-1.798-4.702-1.724-2.839-1.724-3.021.005-4.75C87.673 92.327 83.843 86 76.667 86c-2.384 0-4.634.3-5 .667m22.854.5c-.263.733-.601 4.672-.75 8.753-.289 7.921-1.948 10.375-3.771 5.58-1.274-3.35-3.567-2.692-3.3.947.276 3.755 2.024 5.553 5.399 5.553 4.605 0 6.038-3.286 5.693-13.058-.194-5.515-.709-8.419-1.541-8.695-.688-.227-1.466.187-1.73.92m8.639.073c-1.788 1.788-1.618 46.135.182 47.629.738.612 1.638.818 2 .456.975-.976.799-48.12-.182-48.726-.462-.286-1.362.003-2 .641M4.027 93.25c-12.061 27.545 3.559 70.681 35.866 99.051 30.104 26.436 77.428 42.326 120.107 40.33 32.661-1.528 56.917-11.192 75.5-30.08 8.341-8.478 13.637-17.17 17.09-28.051 2.739-8.63 4.091-21.474 3.015-28.647l-.669-4.464-9.939-4.89c-5.466-2.69-10.125-4.69-10.353-4.445-.227.245.012 3.371.532 6.946 2.42 16.635-3.464 35.5-15.96 51.173-10.698 13.417-28.417 23.425-50.601 28.58-9.473 2.201-13.478 2.585-27.115 2.596-10.876.009-18.958-.534-25.236-1.696-57.089-10.566-106.063-50.382-113.336-92.142-1.553-8.923-.66-24.204 1.887-32.261 2.28-7.214 1.908-8.158-.788-2M75 92.5c0 2.282.366 2.591 2.75 2.316 1.978-.227 2.75-.878 2.75-2.316 0-1.438-.772-2.089-2.75-2.316-2.384-.275-2.75.034-2.75 2.316m-57.292 21.126c-1.547 1.546-.564 3.258 2.042 3.558 2.741.315 2.751.345 3.039 9.066.216 6.55.629 8.75 1.643 8.75 2.003 0 2.568-2.33 2.568-10.582 0-7.302.04-7.418 2.573-7.418 1.912 0 2.488-.45 2.24-1.75-.27-1.417-1.578-1.805-6.866-2.041-3.592-.16-6.85.028-7.239.417m16.376.773c-.75.903-1.059 4.715-.873 10.75l.289 9.351H40c5.111 0 6.5-.321 6.5-1.5 0-1.08-1.33-1.585-4.75-1.805-4.255-.273-4.75-.553-4.75-2.692 0-2.094.522-2.426 4.25-2.696 2.974-.215 4.25-.757 4.25-1.807 0-1.053-1.284-1.592-4.312-1.811-3.789-.272-4.274-.575-4-2.5.243-1.707 1.083-2.253 3.812-2.478 5.5-.453 6.446-.969 4.99-2.723-1.614-1.945-10.312-2.01-11.906-.089m15.604-.753c-.379.378-.688 5.37-.688 11.094 0 9.371.174 10.374 1.75 10.074 1.199-.228 1.907-1.565 2.25-4.246.688-5.387 2.191-5.413 4.781-.083 2.096 4.316 4.371 5.697 5.738 3.484.35-.567-.766-3.517-2.482-6.557l-3.119-5.526 2.583-3.069c1.42-1.688 2.422-3.547 2.228-4.13-.811-2.432-2.759-1.528-6.081 2.823l-3.527 4.619-.31-4.237c-.294-4.005-1.595-5.774-3.123-4.246m16.741.679c-.28.729-.378 5.566-.219 10.75.233 7.582.583 9.425 1.79 9.425 1.131 0 1.575-1.464 1.806-5.949l.306-5.949 3.294 5.949c2.227 4.022 3.909 5.949 5.194 5.949 1.746 0 1.9-.851 1.9-10.5 0-8.667-.262-10.5-1.5-10.5-1.119 0-1.627 1.581-2 6.227l-.5 6.226-3.448-6.476c-3.315-6.226-5.545-7.961-6.623-5.152m19.663 1.077c-4.016 4.275-4.051 13.639-.067 17.623 2.599 2.599 8.335 2.615 10.919.031 4.187-4.187 3.834-14.512-.616-18.013-3.481-2.738-7.457-2.599-10.236.359m24.121-1.214c-.754.753-1.213 4.325-1.213 9.43 0 9.077.528 11.382 2.607 11.382 1.048 0 1.405-1.671 1.442-6.75l.049-6.75 3.497 6.814c2.527 4.924 3.97 6.724 5.201 6.487 1.476-.284 1.704-1.731 1.704-10.815 0-8.654-.262-10.486-1.5-10.486-1.143 0-1.571 1.5-1.799 6.303l-.299 6.302-3.333-6.263c-3.586-6.739-4.478-7.533-6.356-5.654m17.999-.34c-.943.598-1.211 3.474-1 10.735l.288 9.917 3.388.324c1.864.178 4.443.059 5.732-.265 5.932-1.489 7.27-14.676 1.953-19.25-2.711-2.332-7.847-3.056-10.361-1.461m18.24 1.798c-2.008 2.167-2.452 3.68-2.452 8.365 0 7.546 2.481 10.989 7.918 10.989 4.408 0 6.712-2.076 8.173-7.366 2.931-10.615-6.902-19.258-13.639-11.988M7.447 122.492c1.259 15.695 14.607 35.261 33.863 49.638 14.861 11.095 32.888 19.432 52.946 24.484 8.194 2.064 13.563 2.686 26.831 3.107 19.151.608 27.916-.694 41.471-6.16 8.698-3.507 22.442-11.815 22.442-13.566 0-.574 1.152-1.483 2.56-2.018 1.408-.535 2.322-1.359 2.031-1.83-.291-.471.623-1.934 2.032-3.252 1.408-1.317 3.013-3.235 3.566-4.262.908-1.684 1.237-29.54.359-30.418-.199-.199-1.754.357-3.455 1.237-1.701.88-3.107 1.25-3.123.824-.017-.427-.484.002-1.038.953s-.952 2.025-.884 2.388c.067.363-.253.935-.713 1.271-.459.337-2.185 3.308-3.835 6.603-1.889 3.773-5.983 9.005-11.056 14.128-6.466 6.53-9.723 8.937-16.5 12.19-12.367 5.939-18.403 7.301-34.944 7.889-16.703.594-27.047-.811-42.724-5.801-19.885-6.329-37.386-16.89-49.565-29.909-7.957-8.507-12.068-14.825-17.327-26.634L6.887 115.5l.56 6.992M3.536 122c2.536 23.6 21.982 50.13 50.965 69.528 20.284 13.576 36.825 19.95 59.363 22.874 23.333 3.027 47.915 1.511 64.882-4.002 25.86-8.402 45.175-27.992 50.696-51.415 1.682-7.137 2.098-26.107.633-28.845-.509-.95-3.255-2.819-6.102-4.153l-5.178-2.425-3.647 2.112-3.648 2.111-.655 10.857c-1.085 17.984-5.845 29.319-16.932 40.321-17.122 16.99-43.759 25.236-76.413 23.655-27.414-1.327-51.092-9.03-69.331-22.553-22.592-16.751-37.862-36.633-43.236-56.295l-1.988-7.27.591 5.5m85.059-2.832c-1.834 2.619-2.023 5.577-.595 9.333.799 2.1 1.557 2.568 3.75 2.315 2.264-.26 2.918-.996 3.7-4.164 1.687-6.831-3.412-12.399-6.855-7.484M131 124c0 6.773.08 7 2.465 7 2.941 0 4.535-2.559 4.535-7.279 0-3.63-2.451-6.721-5.329-6.721-1.402 0-1.671 1.126-1.671 7m17.98-4.962c-.6 1.121-.954 3.888-.786 6.148.355 4.765 2.722 6.984 5.556 5.206 2.121-1.329 2.962-9.829 1.186-11.97-1.706-2.055-4.692-1.746-5.956.616"/><path fill="#1976D2" fill-opacity=".339" fill-rule="evenodd" d="M47.296 38.959 27.091 54.5l20.705.759c11.387.417 23.163.642 26.168.5l5.464-.259-6.157-5c-3.387-2.75-6.183-5.317-6.214-5.705-.118-1.456 7.635-2.054 19.341-1.493 29.764 1.428 60.697 15.351 80.438 36.207 13.825 14.605 20.821 29.109 22.028 45.67l.636 8.72 14.808-8.501 14.807-8.502 16.528 8.634c9.09 4.748 16.788 8.373 17.106 8.054.319-.319-.181-3.317-1.111-6.663C240.43 86.61 195.494 51.184 139.5 38.517c-23.64-5.348-47.47-5.586-66.5-.663-4.125 1.067-7.58 1.869-7.678 1.782-.098-.087.479-3.29 1.281-7.118.802-3.827 1.332-7.441 1.178-8.03-.155-.589-9.373 5.923-20.485 14.471M10.429 61.325c-.28.729-.378 5.566-.219 10.75.338 10.983 2.041 12.32 2.79 2.19.515-6.969 1.267-6.541 2.505 1.427.358 2.306 1.284 4.718 2.057 5.359 1.674 1.389 2.681-.749 4.029-8.551l.864-5 .522 6.765c.81 10.485 2.483 8.678 2.808-3.033.241-8.668.036-10.364-1.317-10.883-2.385-.915-3.58.854-4.946 7.325-1.15 5.448-1.278 5.631-1.976 2.826a8720.04 8720.04 0 0 0-1.685-6.75C15.169 60.985 14.399 60 12.93 60c-1.096 0-2.222.596-2.501 1.325m19.527 5.342c-.023 3.758-.264 14.033-.534 22.833-.486 15.801.159 20.319 2.556 17.922 1.616-1.616.922-46.623-.728-47.173-.916-.304-1.262 1.41-1.294 6.418m5.231-4.917c.183.962 1.324 1.892 2.535 2.065 2.043.291 2.223.922 2.49 8.756.377 11.052 2.201 11.007 2.577-.065.254-7.486.509-8.506 2.127-8.506 2.056 0 4.427-2.324 3.409-3.342-.362-.362-3.541-.658-7.065-.658-5.562 0-6.363.231-6.073 1.75m15.42-.168c-1.01 2.632-.68 16.413.443 18.512 1.596 2.981 2.95 1.304 2.95-3.653 0-5.201 1.407-5.694 3.797-1.331.936 1.71 2.457 4.072 3.379 5.25 1.53 1.955 1.734 1.989 2.353.398.403-1.034-.167-3.174-1.404-5.271-2.075-3.517-2.076-3.536-.104-5.508C66.449 65.551 62.88 60 55.607 60c-3.083 0-4.574.472-5 1.582m19.966 1.59C67.548 70.411 65.53 79.93 66.76 81.16c.899.899 1.277.842 1.611-.243.241-.779.691-2.204 1.002-3.167.376-1.166 1.593-1.75 3.648-1.75 2.527 0 3.272.541 4.129 3 1.12 3.212 2.315 3.836 3.155 1.647.725-1.889-5.524-19.944-7.069-20.428-.697-.218-1.892 1.108-2.663 2.953M54 66.566c0 2.21.382 2.523 2.75 2.25 1.969-.226 2.841-.955 3.07-2.566.271-1.914-.139-2.25-2.75-2.25-2.629 0-3.07.369-3.07 2.566m17.986.684c-.007.688-.285 2.263-.616 3.5C70.876 72.592 71.172 73 73 73c1.828 0 2.124-.408 1.63-2.25-.331-1.237-.609-2.812-.616-3.5C74.006 66.563 73.55 66 73 66s-1.006.563-1.014 1.25M15.655 87.829C14.745 88.835 14 91.101 14 92.864c0 2.848.503 3.423 4.5 5.136 4.585 1.965 5.587 3.853 3.127 5.895-1.766 1.465-4.38.458-5.156-1.987-.333-1.05-.999-1.908-1.479-1.908-1.664 0-2.012 1.862-.833 4.449 2.554 5.606 11.056 3.932 11.659-2.296.377-3.889-.973-5.773-5.488-7.66-3.535-1.476-4.41-4.141-1.702-5.18 1.038-.399 2.257.208 3.363 1.675.965 1.279 2.239 1.988 2.872 1.597C26.512 91.566 26.268 90.268 24 88c-2.496-2.496-6.173-2.571-8.345-.171m21.521-.605c-1.549 1.549-1.606 19.392-.064 20.345 1.785 1.104 2.853-1.661 2.922-7.569l.064-5.5 3.499 6.817c1.963 3.826 4.026 6.642 4.701 6.417.831-.277 1.202-3.538 1.202-10.567 0-11.56-1.717-13.977-2.5-3.52l-.5 6.678-2.958-6.213c-3.422-7.188-4.692-8.562-6.366-6.888m57.491-.557c-.367.366-.667 4.416-.667 9 0 7.566-.178 8.333-1.93 8.333-1.217 0-2.049-.803-2.25-2.172-.512-3.478-2.82-3.464-2.82.017 0 5.224 4.424 7.759 8.43 4.83 1.351-.988 1.941-3.129 2.32-8.42.679-9.491-.553-14.119-3.083-11.588M54 96.933c0 11.3.215 11.572 8.595 10.887 5.558-.455 5.377-3.213-.238-3.622-3.48-.254-4.218-.691-4.607-2.727-.601-3.14-.179-3.471 4.417-3.471 2.74 0 3.833-.428 3.833-1.5 0-1.083-1.111-1.5-4-1.5-3.575 0-4-.26-4-2.443 0-2.158.494-2.478 4.25-2.75 6.457-.467 5.075-2.268-2-2.605L54 86.905v10.028m17-.042c0 6.252.416 10.248 1.112 10.678 1.549.957 2.855-1.46 2.873-5.319.022-4.762 2.606-4.144 5.227 1.25 1.203 2.475 2.52 4.5 2.928 4.5 1.82 0 1.881-2.38.151-5.877-1.852-3.743-1.85-3.833.145-6.505 1.862-2.495 1.903-2.924.51-5.414-1.329-2.376-2.206-2.74-7.229-3.004L71 86.9v9.991m31.952-2.641c-.027 3.987-.288 13.715-.579 21.617-.572 15.482-.163 19.133 2.146 19.133 1.267 0 1.481-3.471 1.481-24 0-20.667-.208-24-1.5-24-1.191 0-1.51 1.494-1.548 7.25M75 92.76c0 2.658.249 2.857 3.054 2.445 2.437-.357 2.992-.877 2.75-2.576-.212-1.483-1.138-2.225-3.054-2.445-2.439-.281-2.75.01-2.75 2.576M3.148 96.183C2.57 98.007 1.579 102.425.946 106c-4.302 24.293 10.924 59.805 35.47 82.728 35.437 33.095 95.148 50.512 142.919 41.69 35.842-6.62 63.149-27.258 72.667-54.923 2.646-7.691 4.28-20.755 3.47-27.737l-.678-5.843-9.879-4.958c-5.433-2.726-10.064-4.957-10.291-4.957-.226 0 .032 1.912.574 4.25 1.656 7.138.43 22.28-2.473 30.556-9.362 26.682-31.625 44.887-64.183 52.483-13.376 3.121-41.718 3.047-56.542-.147-30.91-6.659-58.061-20.691-79.088-40.874-15.937-15.296-24.863-29.159-29.058-45.132-2.429-9.248-2.65-24.796-.478-33.628 1.605-6.525 1.459-8.649-.228-3.325m46.51 17.492c-1.159 1.159-.746 20.153.454 20.894 1.441.891 2.853-1.381 2.873-4.619.008-1.403.552-3.087 1.208-3.743.923-.923 1.769-.137 3.75 3.482 4.725 8.638 7.027 6.133 2.527-2.749l-2.531-4.994 2.478-3.249c1.789-2.345 2.209-3.658 1.51-4.723-1.024-1.56-1.876-.833-6.868 5.854l-1.996 2.672-.031-3.628c-.031-3.496-2.016-6.554-3.374-5.197m17.518.549c-1.549 1.549-1.606 19.392-.064 20.345 1.785 1.104 2.853-1.661 2.922-7.569l.064-5.5 3.465 6.75c5.203 10.137 6.571 9.257 6.221-4-.319-12.074-1.988-14.234-2.784-3.603l-.5 6.678-2.958-6.213c-3.422-7.188-4.692-8.562-6.366-6.888m21.03-.198c-3.236 1.329-5.555 7.387-4.752 12.411 1.689 10.566 12.827 11.659 15.556 1.526 1.163-4.318-.006-10.885-2.273-12.766-1.977-1.641-6.032-2.197-8.531-1.171m22.452-.351c-.362.362-.658 5.346-.658 11.075 0 7.886.304 10.317 1.25 10.005.752-.247 1.449-2.969 1.75-6.833l.5-6.422 3.5 6.5c5.168 9.598 6.5 8.83 6.5-3.75 0-11.673-1.719-14.089-2.5-3.515l-.5 6.765-3.168-6.06c-3.281-6.275-5.538-8.901-6.674-7.765m36.265 2.248c-2.388 2.388-2.923 3.769-2.923 7.55 0 8.388 4.089 12.726 10.482 11.121 3.259-.818 5.518-5.371 5.518-11.121 0-3.781-.535-5.162-2.923-7.55-3.697-3.697-6.457-3.697-10.154 0m-129.188-1.324c-1.17 1.17.278 2.401 2.824 2.401 2.407 0 2.441.125 2.441 9 0 7.333.278 9 1.5 9 1.221 0 1.5-1.659 1.5-8.934 0-8.808.035-8.938 2.531-9.25 1.392-.174 2.63-.766 2.75-1.316.246-1.125-12.476-1.972-13.546-.901m16.48 9.651.285 10.25 5.75.3c5.228.273 5.75.114 5.75-1.75 0-1.767-.63-2.05-4.566-2.05-4.392 0-4.555-.105-4.25-2.75.27-2.352.864-2.822 4.099-3.25 5.18-.685 5.16-2.432-.033-2.807-3.756-.272-4.25-.592-4.25-2.75 0-2.229.395-2.443 4.5-2.443 3.333 0 4.5-.389 4.5-1.5 0-1.168-1.337-1.5-6.035-1.5H33.93l.285 10.25m93.392-8.668c-1.116 2.907-.658 16.967.593 18.218 2.03 2.03 7.452 1.403 10.494-1.213 2.428-2.089 2.806-3.139 2.806-7.794 0-3.467-.631-6.343-1.773-8.087-1.526-2.328-2.453-2.706-6.643-2.706-3.518 0-5.038.439-5.477 1.582m-39.627 3.456c-1.784 3.333-.813 10.013 1.697 11.671 1.956 1.292 2.386 1.228 4.25-.636 2.271-2.271 2.792-7.862 1.038-11.139-1.378-2.574-5.586-2.511-6.985.104M131 124c0 6.638.119 7 2.3 7 3.309 0 4.7-1.854 4.7-6.266 0-5.156-1.511-7.734-4.535-7.734-2.385 0-2.465.227-2.465 7m18.245-5.75c-2.845 3.556-2.021 11.854 1.303 13.13 3.195 1.226 6.452-2.663 6.452-7.705 0-4.932-5.225-8.587-7.755-5.425M11.052 142.79c-.086 2.131 3.894 9.306 8.993 16.21 11.508 15.582 30.704 31.489 50.011 41.442 21.12 10.887 38.818 14.783 67.444 14.847 14.914.033 19.793-.342 28.457-2.186 12.903-2.746 23.662-6.841 28.926-11.011l3.997-3.165.31-11.311.31-11.312-8.5 6.512c-10.279 7.875-21.787 13.455-34.794 16.87-12.988 3.411-38.758 4.359-53.761 1.978-37.957-6.023-66.869-24.632-89.643-57.699-.933-1.356-1.721-1.885-1.75-1.175m8.498 3.468c1.855 9.635 22.347 28.195 41.95 37.996 14.534 7.266 36.638 13.638 49.105 14.154 3.908.162 7.583.59 8.166.951.584.36 2.224.213 3.645-.327 2.251-.856 2.584-1.563 2.584-5.488 0-5.154.113-5.095-11.5-5.943-10.956-.8-27.12-4.037-37.334-7.476-18.889-6.361-34.786-15.812-47.592-28.295-7.842-7.644-9.637-8.752-9.024-5.572"/><path fill="#1976D2" fill-opacity=".564" fill-rule="evenodd" d="M47.506 39.27 27.639 54.5l12.68.28c6.975.154 18.294.154 25.155 0l12.475-.28-6.109-4.885c-5.537-4.428-5.932-4.989-4.224-5.99 3.014-1.766 23.692-1.277 33.384.79 26.519 5.656 47.919 16.559 64.003 32.606 14.168 14.135 21.821 28.752 24.184 46.189l1.313 9.692 13.849-7.951c7.617-4.373 14.265-7.951 14.773-7.951.508 0 8.339 3.864 17.401 8.587 9.062 4.722 16.477 8.145 16.477 7.605 0-2.499-4.559-15.34-7.524-21.192-19.004-37.511-66.811-67.967-118.611-75.564-15.465-2.268-40.817-1.56-52.762 1.472-4.618 1.173-8.595 1.934-8.837 1.692-.242-.243.238-3.737 1.067-7.767.829-4.029 1.403-7.431 1.274-7.559-.128-.129-9.174 6.62-20.101 14.996M11.598 60.736c-1.012 1.012-.67 20.264.36 20.264.527 0 1.089-3.487 1.25-7.75l.292-7.75 1.319 6c.725 3.3 1.551 6.812 1.835 7.805 1.029 3.602 2.878.888 4.346-6.378l1.5-7.427.292 7.75c.226 5.989.623 7.75 1.75 7.75C25.722 81 26 79.094 26 71c0-9.909-.022-10-2.417-10-2.094 0-2.562.675-3.5 5.049C19.487 68.826 19 71.778 19 72.608c0 3.257-1.808.159-2.465-4.224-.383-2.552-.919-5.222-1.193-5.935-.583-1.519-2.885-2.573-3.744-1.713m59.434 1.679c-2.218 5.835-5.305 17.645-4.755 18.195C67.299 81.632 69 79.965 69 77.941c0-1.589.706-1.941 3.892-1.941 3.317 0 3.984.369 4.519 2.5.781 3.112 2.621 3.296 2.499.25-.147-3.701-5.313-18.066-6.654-18.505-.684-.224-1.685.752-2.224 2.17M30.231 83.912c.17 14.549.639 23.09 1.269 23.089 1.605-.002 1.339-45.221-.269-45.757-1.005-.335-1.213 4.366-1 22.668M35 62c0 .55 1.107 1 2.461 1 2.403 0 2.468.204 2.75 8.669.194 5.831.698 8.805 1.539 9.084.939.311 1.25-1.849 1.25-8.67 0-9.022.017-9.083 2.5-9.083 1.375 0 2.5-.45 2.5-1 0-.564-2.833-1-6.5-1s-6.5.436-6.5 1m16 9c0 9.882 1.591 14.06 2.193 5.759.445-6.143 3.09-6.288 5.986-.328C60.4 78.944 62.014 81 62.767 81c1.584 0 .917-3.089-1.489-6.894-1.363-2.157-1.352-2.485.104-3.3C62.286 70.3 63 68.635 63 67.032 63 61.705 62.228 61 56.393 61H51v10m2.667-7.333c-1.005 1.004-.8 5.132.287 5.805 1.529.944 5.847-.512 6.491-2.189.324-.845.077-2.154-.55-2.91-1.185-1.427-5.067-1.867-6.228-.706M71.346 69c-1.054 3.949-1.033 4 1.654 4s2.708-.051 1.654-4c-.587-2.2-1.331-4-1.654-4-.323 0-1.067 1.8-1.654 4M15.05 88.44c-.657.791-1.049 2.703-.872 4.247.242 2.114 1.311 3.32 4.322 4.878 2.994 1.549 4 2.678 4 4.488 0 3.641-3.398 3.81-6.199.31L14.01 99.5l-.005 2.628c-.006 3.323 2.232 5.205 6.19 5.205 3.785 0 6.003-2.707 5.599-6.833-.226-2.302-1.108-3.395-3.794-4.697-5.285-2.562-6.328-3.703-4.928-5.39 1.651-1.989 3.697-1.756 5.16.587.687 1.1 1.591 2 2.009 2 1.202 0 .882-3.477-.441-4.8-1.661-1.661-7.301-1.506-8.75.24M37 97c0 6 .4 10 1 10 .564 0 1-2.833 1-6.5 0-3.575.337-6.495.75-6.489.413.007 1.61 1.807 2.661 4 3.239 6.762 5.576 10.115 6.604 9.479 1.544-.953 1.284-20.755-.265-20.245-.751.247-1.453 2.975-1.758 6.833l-.508 6.422-3.456-6.75C38.123 84.173 37 84.778 37 97m17.425-8.666c-.281.733-.379 5.121-.218 9.75l.293 8.416 4.873.31c6.883.437 9.531-1.051 3.127-1.758-4.755-.525-5.015-.709-5.309-3.742-.3-3.1-.188-3.198 4-3.5 5.549-.399 5.59-2.217.059-2.617-3.756-.272-4.25-.592-4.25-2.75 0-2.229.395-2.443 4.5-2.443 3.333 0 4.5-.389 4.5-1.5 0-2.016-10.805-2.172-11.575-.166m17.182.248c-.334.87-.575 4.807-.537 8.75.108 10.98 2.333 14.341 3.141 4.745.383-4.537 2.373-4.998 4.538-1.05 4.509 8.22 7.728 8.988 4.147.989-1.741-3.888-1.791-4.495-.432-5.256 1.835-1.027 2.063-6.833.336-8.56-1.843-1.843-10.452-1.549-11.193.382M95 93.435c0 10.35-2.881 15.074-5.176 8.489-1.292-3.706-3.417-2.422-2.439 1.474.94 3.743 4.136 5.146 7.182 3.15C96.845 105.055 97 104.383 97 95.977 97 90.659 96.592 87 96 87c-.563 0-1 2.812-1 6.435M103 111c0 18.889.273 24.076 1.25 23.75 1.811-.604 1.811-46.896 0-47.5-.977-.326-1.25 4.861-1.25 23.75M74 93.063c0 2.854.222 3.042 3.25 2.75 2.708-.261 3.303-.772 3.566-3.063.293-2.545.051-2.75-3.25-2.75-3.312 0-3.566.218-3.566 3.063M1.195 106.5c.02 1.65.244 2.204.498 1.231.254-.973.237-2.323-.037-3-.274-.677-.481.119-.461 1.769m16.805 9c0 .927.94 1.5 2.461 1.5 2.399 0 2.468.214 2.75 8.506.164 4.811.723 8.506 1.289 8.506s1.125-3.695 1.289-8.506c.282-8.292.351-8.506 2.75-8.506 1.521 0 2.461-.573 2.461-1.5 0-1.179-1.389-1.5-6.5-1.5s-6.5.321-6.5 1.5m16 8.5v10h6c3.333 0 6-.444 6-1 0-.55-2.025-1-4.5-1-4.476 0-4.5-.019-4.5-3.5 0-3.417.095-3.5 4-3.5 2.889 0 4-.417 4-1.5s-1.111-1.5-4-1.5c-3.575 0-4-.26-4-2.443 0-2.15.499-2.479 4.172-2.75 2.295-.169 4.358-.869 4.584-1.557.298-.908-1.253-1.25-5.673-1.25H34v10m15.667-9.333c-.833.832-.885 16.602-.062 18.745.879 2.293 2.39.91 2.427-2.221.017-1.48.71-3.589 1.539-4.686 1.701-2.251 1.872-2.1 5.549 4.864 1.516 2.873 2.332 3.579 3.171 2.74.838-.838.372-2.527-1.811-6.562l-2.939-5.434 2.229-3.016c1.227-1.659 2.23-3.484 2.23-4.057 0-2.117-1.899-.915-5.861 3.71l-4.069 4.75-.035-4.75c-.033-4.426-.764-5.687-2.368-4.083M67 124.5c0 6.333.397 10.5 1 10.5.571 0 1-3 1-7 0-3.85.338-6.995.75-6.989.412.007 1.61 1.807 2.661 4 3.239 6.762 5.576 10.115 6.604 9.479 1.544-.953 1.284-20.758-.265-20.235-.819.277-1.25 2.546-1.25 6.585 0 3.39-.288 6.163-.641 6.162-.352-.001-2.152-2.925-4-6.498C68.024 111.153 67 111.851 67 124.5m20.4-9.735c-2.138 1.428-3.4 5.162-3.4 10.058 0 6.515 2.361 9.577 7.385 9.577 5.11 0 6.902-2.21 7.397-9.12.344-4.81.049-6.242-1.757-8.53-2.166-2.744-6.996-3.74-9.625-1.985m22.815 9.485c.321 11.563 1.996 13.535 2.785 3.28l.5-6.5 3.818 7.002c2.1 3.851 4.237 6.743 4.75 6.426 1.239-.766 1.216-20.458-.024-20.458-.526 0-1.089 3.263-1.25 7.25l-.294 7.25-3.763-7.25c-5.466-10.534-6.88-9.883-6.522 3M128 124v10h4.943c6.371 0 8.057-2.139 8.057-10.223 0-7.436-2.035-9.777-8.5-9.777H128v10m18.273-7.294c-1.142 1.744-1.773 4.62-1.773 8.087 0 4.655.378 5.705 2.806 7.794 3.512 3.02 5.846 3.047 9.267.104 3.701-3.184 4.436-10.762 1.497-15.441-1.747-2.783-2.614-3.25-6.032-3.25-3.236 0-4.328.513-5.765 2.706m-56.947.778c-3.966 2.778-3.416 12.718.777 14.049 3.631 1.152 6.033-2.167 5.692-7.863-.363-6.072-3.013-8.606-6.469-6.186M149 118c-3.852 3.852-1.678 14 3 14s6.852-10.148 3-14c-1.1-1.1-2.45-2-3-2-.55 0-1.9.9-3 2m-18 6.5c0 6.482.238 7.498 1.75 7.485 2.591-.023 4-1.197 5.189-4.325 1.923-5.058-.474-10.66-4.561-10.66-2.293 0-2.378.27-2.378 7.5m-129.805 0c.02 1.65.244 2.204.498 1.231.254-.973.237-2.323-.037-3-.274-.677-.481.119-.461 1.769m234.295 22.25c-.011 15.66-1.483 21.417-8.545 33.403-8.362 14.195-18.133 22.969-34.468 30.95-15.721 7.681-26.448 10.084-47.477 10.638-14.898.392-19.284.141-29.5-1.688-45.222-8.098-87.535-36.275-105.613-70.33-4.26-8.024-5.01-8.517-1.752-1.15 3.098 7.002 10.114 18.598 15.57 25.731 31.863 41.656 99.932 65.802 156.751 55.602 29.934-5.373 55.803-22.665 66.815-44.662 5.814-11.615 7.904-20.85 7.522-33.244l-.293-9.5-9-4.714c-4.95-2.592-9.225-4.73-9.5-4.75-.275-.02-.504 6.152-.51 13.714M30 168.75c0 2.488 12.467 13.982 22.971 21.175 16.817 11.519 35.637 19.506 52.927 22.462 9.978 1.705 13.102.887 13.102-3.434 0-2.116-.76-3.086-3.401-4.339-1.871-.888-4.838-1.614-6.593-1.614-9.767 0-34.113-7.012-47.177-13.588-6.627-3.336-24.588-16.247-28.234-20.296-2.317-2.574-3.595-2.704-3.595-.366"/></svg>