<svg xmlns="http://www.w3.org/2000/svg" width="256" height="256"><path fill="#1976D2" fill-opacity=".016" fill-rule="evenodd" d="M0 128.004v128.004l128.25-.254 128.25-.254.254-127.75L257.008 0H0v128.004m.485.496c0 70.4.119 99.053.265 63.672.146-35.38.146-92.98 0-128C.604 29.153.485 58.1.485 128.5"/><path fill="#1976D2" fill-opacity=".247" fill-rule="evenodd" d="M112.22 1.268c-8.066 1.939-16.86 14.553-32.815 47.073-5.17 10.537-9.694 20.717-10.053 22.621-.417 2.204-2.972 6.178-7.035 10.94-6.683 7.832-19.319 28.478-19.584 31.998-.085 1.126-.781 2.288-1.548 2.582-.773.297-1.129 1.221-.8 2.078.326.849.208 1.306-.262 1.016-.47-.291-2.775 3.603-5.121 8.652-3.06 6.588-4.405 10.924-4.76 15.351-.482 5.995-.379 6.326 3.615 11.615 4.648 6.156 17.976 18.598 24.68 23.038 2.455 1.626 4.463 3.078 4.463 3.227 0 .149-3.518 2.315-7.819 4.814-8.595 4.994-17.975 13.039-21.102 18.1-1.106 1.789-4.686 5.33-7.954 7.868l-5.943 4.615.418 10.322c.599 14.803.995 16.419 4.692 19.179 4.864 3.632 9.011 4.548 23.208 5.126 7.15.292 15.475 1.008 18.5 1.592 8.753 1.69 25.936 2.232 32 1.009 16.798-3.389 21.876-3.957 25.676-2.872 2.103.601 9.674 1.184 16.824 1.297 7.15.113 16.711.559 21.246.991 10.007.953 23.79-.691 33.754-4.026 3.85-1.289 8.8-2.592 11-2.895 3.323-.459 5.068-1.685 10.309-7.243C224.83 231.89 234 218.563 234 215.805c0-2.412-6.045-15.805-7.134-15.805-.476 0-.777-.338-.668-.75.47-1.779-1.421-5.234-2.52-4.604-.648.371-.856.318-.463-.117.974-1.079-1.08-4.73-2.254-4.005-.516.319-.672-.115-.346-.964.33-.859-.008-1.729-.761-1.962-.745-.231-7.834-2.522-15.754-5.092-10.361-3.362-15.295-4.504-17.591-4.074-2.964.556-3.319.315-4.992-3.394-.99-2.196-2.627-4.255-3.636-4.576-1.01-.32-3.195-3.429-4.855-6.907-1.66-3.478-4.972-8.978-7.359-12.221-2.86-3.885-4.583-7.423-5.048-10.366-.389-2.457-1.831-8.039-3.205-12.404-1.375-4.365-3.355-13.023-4.402-19.24l-1.903-11.303 2.491-8.26c4.747-15.749 4.985-46.345.482-62.009C148.442 8.133 139.319-.144 123.626.12c-3.919.066-9.052.583-11.406 1.148M64.912 131.789c-9.124 11-9.111 9.412-.189 23.191 4.277 6.605 8.078 12.012 8.445 12.015 1 .008 5.832-15.088 5.832-18.219 0-1.494-1.211-5.318-2.692-8.496-1.48-3.179-2.943-7.769-3.25-10.2-.307-2.431-1.008-4.557-1.558-4.724-.55-.168-3.515 2.727-6.588 6.433"/><path fill="#1976D2" fill-opacity=".037" fill-rule="evenodd" d="M112.734 1.417c-2.622.705-4.893 1.462-5.048 1.683-.156.22-2.103 2.65-4.328 5.4-2.224 2.75-5.315 7.25-6.867 10-1.553 2.75-3.615 5.9-4.583 7-2.535 2.882-19.708 38.075-21.471 44-1.003 3.372-3.757 7.768-8.459 13.5-3.835 4.675-6.974 9.135-6.975 9.912-.002.777-2.095 4.981-4.652 9.342-2.557 4.362-5.614 10.252-6.793 13.088-3.122 7.51-5.471 11.658-6.603 11.658-.547 0-.797 1.087-.556 2.415s.163 2.69-.173 3.026c-.336.336-.762 1.611-.947 2.835-.185 1.223-.749 2.366-1.252 2.539-.503.173-.667.96-.364 1.75.303.789.026 1.435-.615 1.435s-.929.384-.639.853c.29.469-.119 1.706-.909 2.75-.79 1.043-1.444 2.572-1.453 3.397-.015 1.333.091 1.333.953 0 .761-1.177.973-.93.985 1.144.015 2.582 3.442 6.961 7.545 9.643 1.084.708 1.295.957.47.552-1.736-.852 2.018 3.266 9.892 10.848 3.034 2.922 5.138 4.692 4.674 3.933-.59-.963-.425-1.227.545-.875.764.278 1.282.995 1.151 1.594-.131.599.341.867 1.049.595.708-.271 2.862.982 4.788 2.786 1.926 1.804 3.052 2.942 2.501 2.53-.55-.412-1.392-.75-1.871-.75-1.205 0 1.172 2.255 4.771 4.527 2.972 1.877 2.985 1.876 1.38-.066-.89-1.079-1.415-2.523-1.166-3.211.494-1.365 2.867-1.701 3.539-.5.23.412.288.202.127-.468-.161-.67.138-1.484.664-1.809.526-.325.957-.227.958.218.001.445 1.576.921 3.5 1.058 1.924.138 3.498-.186 3.498-.718 0-.533-.666-.713-1.481-.4-.913.35-2.533-.715-4.227-2.781-5.098-6.218-13.217-13.496-17.615-15.792C54.01 158.666 45 148.938 45 147.451c0-.402-.788-1.363-1.75-2.136-1.549-1.245-1.234-1.344 2.75-.864 3.344.403 3.986.291 2.5-.436-1.625-.794-1.283-.938 1.823-.765 2.838.158 4.448-.39 6.25-2.124 1.335-1.285 2.427-2.745 2.427-3.245s1.262-2.14 2.805-3.645c1.543-1.505 2.096-2.196 1.228-1.537-.913.694-2.142.852-2.913.375-1.401-.866-1.05-2.97 1.43-8.574 8.103-18.308 11.736-26.14 12.621-27.205 1.452-1.75 3.116-.5 2.495 1.875-.418 1.599-.253 1.732.931.749 1.142-.947 1.903-.806 3.672.682 1.227 1.033 2.381 1.958 2.565 2.055.515.275-6.686 11.365-10.288 15.844-5.875 7.304-7.179 10.464-2.063 5 7.266-7.762 18.409-22.787 15.621-21.064-.607.375-1.104.232-1.104-.318s.41-1.253.911-1.563c1.104-.682 7.08 7.21 7.111 9.392.038 2.712 3.59 9.453 6.495 12.327 3.033 3 10.579 6.726 13.624 6.726 1.037 0 2.729-.527 3.76-1.17 1.784-1.114 1.705-1.478-1.644-7.57-2.049-3.728-3.147-6.77-2.629-7.288.488-.488 2.816-1.13 5.172-1.426 2.356-.296 5.728-1.307 7.492-2.248 1.764-.94 3.492-1.635 3.839-1.543.347.091 1.325-.604 2.174-1.545 1.811-2.007 2.849-13.787 1.458-16.546-1.107-2.196-1.096-2.209 3.361-4.071 3.222-1.346 3.517-1.328 3.466.218-.203 6.195 1.916 16.442 4.528 21.904 4.323 9.038 5.549 15.831 3.911 21.68-.867 3.097-1.76 4.539-2.609 4.213-.71-.273-1.432-.123-1.605.332-.173.455-2.79 1.131-5.815 1.502-3.943.484-5.075.379-4-.368 1.222-.85 1.037-1.06-1-1.135-2.22-.081-2.108-.238 1-1.402 2.77-1.037 3.145-1.457 1.798-2.012-.936-.386-2.135-.435-2.665-.107-.529.327-1.124.11-1.321-.482-.232-.695-2.415-.308-6.155 1.091-3.187 1.193-5.99 1.973-6.229 1.734-.239-.239 2.042-1.276 5.069-2.305 3.027-1.028 5.503-2.147 5.503-2.485 0-1.13-9.434-.202-15 1.476-3.025.911-7.35 2.563-9.612 3.671-3.833 1.877-4.09 2.263-3.799 5.7l.313 3.687-10.201 3.813c-5.611 2.097-10.917 4.346-11.791 4.998-.875.651-2.398 3.659-3.386 6.684-.987 3.025-2.397 6.691-3.132 8.147-1.221 2.418-1.095 2.952 1.461 6.167 1.538 1.937 4.312 4.795 6.164 6.353 3.209 2.7 3.841 2.833 13.425 2.833H105.5l4 3.829c2.2 2.106 5.688 4.978 7.75 6.383 2.062 1.404 3.75 2.755 3.75 3 0 .749-6.326-.864-9.25-2.358-2.327-1.189-2.75-1.193-2.75-.025 0 1.826 10.187 11.411 13.444 12.65 3.098 1.177 3.43 3.062.4 2.27-1.375-.36-1.92-.181-1.503.494.85 1.374-10.452 3.452-11.791 2.168-.578-.554.827-.911 3.583-.911 2.494 0 4.847-.313 5.229-.695.784-.785-6.872-3.195-12.707-4.002-3.406-.471-3.793-.802-3.39-2.911.531-2.777-1.015-4.4-3.799-3.987-2.387.354-5.466-1.418-5.466-3.146 0-.692-.513-1.259-1.14-1.259-1.537 0-3.789-3.089-3.828-5.25-.018-.963-.637-1.75-1.377-1.75s-2.16-.9-3.155-2c-2.255-2.492-3.5-2.551-3.5-.165 0 1.009 1.366 3.051 3.035 4.539 1.669 1.487 2.808 3.07 2.531 3.519-.277.448.666 1.347 2.095 1.998 1.428.651 2.363 1.418 2.077 1.704-.731.731-10.738-5.553-10.738-6.744 0-.537-.787-.856-1.75-.709-.963.147-2.875-.314-4.25-1.026-2.178-1.127-2.114-.96.5 1.294 2.17 1.871 2.446 2.406 1 1.93-1.1-.362-1.775-.421-1.5-.131 1.758 1.855 12.346 9.866 16.673 12.615 7.052 4.479 8.054 5.804 4.856 6.415-1.434.274-2.998-.099-3.636-.868-.616-.742-1.458-1.14-1.872-.884-.973.601-8.867-4.63-11.968-7.931C75.732 198.15 75.18 197 75.826 197c2.474 0 1.001-1.877-3.046-3.879-3.667-1.814-4.33-1.89-5.061-.583-.463.827-1.377 1.194-2.03.816-.654-.379.789 1.093 3.207 3.272 3.949 3.558 4.276 4.185 3.215 6.167-1.062 1.984-2.942 2.758-5.519 2.273-1.515-.286-2.583 2.32-1.289 3.142.658.419 3.672.83 6.697.913 3.025.083 4.487.346 3.25.585-2.966.571-2.831 1.462.506 3.328 2.495 1.394 3.062 1.376 6.244-.202 4.412-2.188 4.5-2.189 6.607-.082 1.048 1.048 3.383 1.788 5.821 1.845 3.91.092 11.785 3.323 13.038 5.35.565.914 9.98.515 11.609-.491 1.086-.672 5.925 5.4 5.925 7.436 0 .955 1.326 3.007 2.948 4.56 2.424 2.323 2.843 3.376 2.361 5.937-.868 4.608-3.487 8.62-6.049 9.263-3.407.855-2.714 3.174 1.166 3.902 4.956.93 21.575 1.082 21.574.198 0-.412.952-.75 2.117-.75 1.738 0 1.989-.402 1.406-2.25-1.432-4.537-1.64-7.307-.731-9.741 1.374-3.679-.963-5.073-5.677-3.388-1.988.71-4.579 1.311-5.757 1.335-2.286.047-9.28-5.141-11.4-8.456-1.193-1.865-1.154-1.899.569-.5 1.679 1.364 1.786 1.336 1.172-.302-.402-1.07-.28-1.557.3-1.198.538.332 2.196-.527 3.685-1.908 2.188-2.029 2.989-2.279 4.166-1.302.802.666 1.726 1.092 2.054.947.328-.144.648.657.711 1.782.158 2.802 1.303 3.725 2.424 1.952.707-1.118.934-.819.946 1.248.011 1.981.415 2.565 1.489 2.152.811-.311 2.193.153 3.072 1.032 1.979 1.979 4.348 1.991 6.934.037 1.901-1.437 1.663-1.796-6-9.017-7.63-7.191-8.153-7.5-11.928-7.041-2.311.282-3.391.136-2.604-.35.739-.456 1.067-1.551.729-2.431-.338-.881-.152-1.601.413-1.601.566 0 .75-.45.41-1-.375-.607 1.075-1.003 3.691-1.008 2.37-.004 7.194-.475 10.72-1.047 4.876-.792 6.591-.751 7.159.168.464.752 3.713 1.276 8.589 1.387 6.997.159 8.164-.087 10.841-2.285 4.622-3.794 5.672-6.247 3.867-9.032-1.552-2.396-1.329-3.06 2.344-6.961 1.376-1.462 2.704-7.477 2.07-9.378-.232-.696-2.285 1.481-4.564 4.836-2.278 3.355-6.055 7.737-8.392 9.738-5.032 4.307-14.261 8.887-16.641 8.259-1.277-.338-1.322-.473-.184-.563 2.816-.221 8.022-10.431 10.384-20.364.849-3.568.2-3.47-4.949.75-2.35 1.925-4.573 3.5-4.942 3.5-.369 0 2.046-3.149 5.367-6.998s6.434-7.705 6.918-8.569c.483-.865 2.096-1.705 3.583-1.868 2.758-.303 4.973-1.565 2.747-1.565-.674 0-.948-.45-.608-1 .34-.55.141-1-.441-1s-1.069-.562-1.081-1.25c-.039-2.165-3.617-6.144-4.394-4.886-.386.625-1.52 1.136-2.521 1.136-1 0-2.342.631-2.982 1.402-1.484 1.788-6.735.514-6.248-1.515.184-.763-.041-1.012-.5-.554-.458.459-.833 1.305-.833 1.882 0 1.611-6.607 4.785-9.962 4.785-1.646 0-6.469.747-10.719 1.66-8.43 1.812-10.401 1.278-11.01-2.983-.408-2.854-3.926-2.656-10.742.606-2.787 1.334-5.067 1.993-5.067 1.464 0-.529-.675-.702-1.5-.385-.956.367-1.543-.047-1.618-1.143a264.5 264.5 0 0 0-.453-5.219c-.616-6.43-.393-9.179.844-10.375.675-.652 4.714-2.695 8.977-4.54 4.263-1.845 7.75-3.672 7.75-4.06 0-2.923 16.272-4.081 25.952-1.847 5.612 1.296 12.145 6.175 14.585 10.893.816 1.578 2.43 3.376 3.586 3.995 2.093 1.12 2.094 1.109.348-2.22a675.314 675.314 0 0 1-2.52-4.846c-.421-.825-1.144-1.426-1.608-1.335-.464.091-.954-1.484-1.089-3.5-.313-4.668-2.455-13.497-3.446-14.208-.417-.299-.894-1.424-1.062-2.5-.167-1.077-.673-2.549-1.125-3.274-.452-.724-.555-1.582-.23-1.908.325-.325.095-1.189-.512-1.92-.606-.731-.842-2.01-.522-2.842.319-.832.096-1.513-.497-1.513-.649 0-.828-.992-.449-2.5.395-1.575.204-2.5-.517-2.5-.734 0-.932-1.06-.552-2.961.326-1.629.156-3.231-.377-3.561-1.274-.787-.262-7.019 2.756-16.978 1.7-5.608 2.56-11.288 2.876-19 .247-6.05.63-11.508.849-12.129.859-2.434-2.408-24.279-4.693-31.371-1.328-4.125-4.054-10.046-6.056-13.158-2.956-4.593-4.805-6.239-9.829-8.75C131.753.536 129.539.012 124.09.067c-3.624.038-8.735.645-11.356 1.35m8.079 51.266c.721.289 1.584.253 1.916-.079.332-.332-.258-.568-1.312-.525-1.165.048-1.402.285-.604.604M136.5 53c-.34.55-.168 1 .382 1s1.278-.45 1.618-1c.34-.55.168-1-.382-1s-1.278.45-1.618 1m-15.799 3.036c-.283 1.082-.139 1.735.32 1.451.459-.284 1.11.35 1.446 1.408.336 1.058 1.156 2.375 1.822 2.926.894.74 1.236.297 1.306-1.687.06-1.694-.733-3.314-2.142-4.377-2.126-1.603-2.264-1.589-2.752.279m6.511 1.996c-1.791 2.868-1.473 3.786.39 1.126.881-1.258 1.427-2.463 1.212-2.677-.214-.215-.935.483-1.602 1.551m-22.513 5.625c.27.704.954 1.181 1.521 1.061.566-.12 1.257.407 1.535 1.171.346.953.071 1.141-.875.6-.759-.434.163.845 2.048 2.842 4.104 4.347 8.859 6.119 13.887 5.175l3.685-.692-3-2.46c-4.658-3.819-8.492-5.674-8.536-4.13-.02.702-1.032.093-2.25-1.353-2.345-2.785-8.933-4.605-8.015-2.214m12.301.721c0 .207.787.995 1.75 1.75 1.586 1.243 1.621 1.208.378-.378-1.307-1.666-2.128-2.195-2.128-1.372m15.079 38.205c.048 1.165.285 1.402.604.605.289-.722.253-1.585-.079-1.917-.332-.332-.568.258-.525 1.312M73.17 104.75c-.495.963-.677 2.375-.405 3.139.286.805.048 1.114-.566.734-.584-.361-1.386-.129-1.784.515-.452.731-.291.903.43.457 1.521-.939 1.487.673-.045 2.205-.727.727-.791 1.2-.161 1.2 1.172 0 3.71-4.984 2.934-5.761-.277-.276-.053-1.343.497-2.37.55-1.028.775-1.869.5-1.869s-.905.787-1.4 1.75m-15.373 21.273c-.937 1.637-1.291 2.977-.786 2.977 1.134 0 3.235-3.772 2.804-5.033-.173-.507-1.082.418-2.018 2.056m90.282-1.44c.048 1.165.285 1.402.604.605.289-.722.253-1.585-.079-1.917-.332-.332-.568.258-.525 1.312m-49.835 15.081c-.691.279-1.014.899-.718 1.378.648 1.048 3.474.114 3.474-1.149 0-.963-.775-1.027-2.756-.229m-11.289 4.69c.471.471 1.661.401 2.659-.158 1.553-.869 1.434-.989-.853-.853-1.468.087-2.277.539-1.806 1.011M150 163c0 .55.477 1 1.059 1s.781-.45.441-1-.816-1-1.059-1-.441.45-.441 1m-85.49 10.016c.346.559 1.047.758 1.559.441 1.387-.857 1.129-1.457-.628-1.457-.857 0-1.276.457-.931 1.016M69 175.5c1.393 1.678-.019 2.081-1.633.467-.711-.711-1.034-.556-1.034.5 0 .843.339 1.533.752 1.533s1.537.301 2.497.67c1.191.457 1.516.298 1.023-.5-.398-.644-.191-1.17.458-1.17.881 0 .865-.382-.063-1.5-.685-.825-1.695-1.5-2.245-1.5-.558 0-.449.663.245 1.5m8 15.85c0 .231 1.18 1.193 2.623 2.139 1.443.945 2.318 1.224 1.944.62-.713-1.154-4.567-3.483-4.567-2.759m106 7.709c0 .582.45.781 1 .441s1-.816 1-1.059-.45-.441-1-.441-1 .477-1 1.059M113 205c.825.533 2.175.969 3 .969 1.333 0 1.333-.107 0-.969-.825-.533-2.175-.969-3-.969-1.333 0-1.333.107 0 .969m-54 9.5c-3.117 1.782-1.627 1.782 3 0 2.292-.883 2.81-1.362 1.5-1.388-1.1-.023-3.125.602-4.5 1.388m14-.607c0 .491.739 1.176 1.641 1.523 1.373.527 1.435.38.378-.893-1.44-1.735-2.019-1.916-2.019-.63m-29.75 4.327c-1.237.597-2.25 1.467-2.25 1.933 0 1.317.968 1.018 3.727-1.153 2.755-2.167 2.108-2.508-1.477-.78m93.563-.537c.721.289 1.584.253 1.916-.079.332-.332-.258-.568-1.312-.525-1.165.048-1.402.285-.604.604m78.353 5.034c-3.604.686-27.063 15.654-27.087 17.283-.004.275 1.108 1.85 2.471 3.5 1.592 1.928 2.741 2.607 3.214 1.9.405-.605 1.75-1.634 2.989-2.287 1.892-.997 2.594-.867 4.393.809 2.26 2.105 4.257 1.707 6.801-1.358.759-.915 2.153-1.327 3.417-1.011 2.528.632 7.667-3.83 12.495-10.848 3.163-4.598 4.165-7.129 1.941-4.905-1.394 1.394-3.18 1.624-2.365.305.544-.88-2.215-2.575-3.685-2.264-.412.088-.75-.291-.75-.841s-.338-.939-.75-.864c-.412.075-1.8.336-3.084.581M132 227.418c0 3.102 1.172 4.684 2.596 3.503.994-.826 1.088-1.643.348-3.026-1.191-2.226-2.944-2.51-2.944-.477m90 1.641c0 .582.45.781 1 .441s1-.816 1-1.059-.45-.441-1-.441-1 .477-1 1.059m-26.139 7-2.361 2.06 2.75-1.675c1.512-.921 2.75-1.847 2.75-2.059 0-.781-.835-.335-3.139 1.674m-41.632 9.129c.218.653.931 1.365 1.584 1.583.731.244.954-.214.581-1.187-.698-1.818-2.765-2.196-2.165-.396m18.584 8.495c.721.289 1.584.253 1.916-.079.332-.332-.258-.568-1.312-.525-1.165.048-1.402.285-.604.604"/><path fill="#1976D2" fill-opacity=".39" fill-rule="evenodd" d="M116.073 1.03c-2.436.509-4.774 1.486-5.196 2.169-.423.684-1.071.94-1.442.57-.833-.833-6.545 5.89-11.241 13.231-1.936 3.025-4.794 7.37-6.352 9.657-4.445 6.523-19.212 37.218-20.991 43.631-1.594 5.75-1.588 5.82 1.015 10.871 1.441 2.796 5.006 7.265 7.923 9.931 7.274 6.648 12.06 13.015 16.649 22.146 4.892 9.736 6.253 11.168 12.612 13.281 4.233 1.406 5.568 1.49 7.467.474l2.313-1.238-3.088-5.018c-2.892-4.699-3.134-5.852-3.812-18.127-.617-11.182-1.123-13.99-3.442-19.108-4.56-10.062-5.708-13.776-5.968-19.313-.223-4.777-.666-5.715-4.384-9.287C95.861 52.714 94 50.132 94 49.163c0-.97-.507-2.27-1.127-2.89-.836-.836-.556-2.05 1.082-4.7 2.714-4.392 4.892-4.587 5.707-.511.417 2.082.94 2.736 1.633 2.043.694-.694.604-1.522-.28-2.587-.715-.861-.972-1.893-.571-2.292.4-.399 1.549.287 2.552 1.524 2.224 2.743 3.45 2.952 2.057.35-1.2-2.243.281-3.1 5.354-3.1 3.553 0 13.817-3.294 22.901-7.349 5.654-2.524 5.791-2.537 5.143-.496-.446 1.406-.301 1.87.442 1.411.641-.396 1.171.078 1.259 1.125.272 3.227.423 3.777 1.644 5.993 1.727 3.133 1.503 4.119-1.046 4.61-1.985.383-1.936.45.421.57 3.405.173 4.211 3.404 2.869 11.5-1.396 8.419-4.277 13.644-9.882 17.918-6.451 4.919-12.019 5.758-18.678 2.812-4.613-2.04-4.748-2.048-3.05-.171.978 1.08 3.112 2.257 4.744 2.615 2.139.47 2.801 1.084 2.374 2.198-.45 1.173-.282 1.288.695.477.955-.793 2.63-.224 6.466 2.194 6.208 3.914 10.012 3.771 15.291-.577l3.5-2.883.324 4.777c.178 2.627-.191 6.507-.82 8.623-.628 2.116-.886 4.104-.573 4.417.313.313.569-.154.569-1.038 0-.885.391-1.85.869-2.145.478-.296.553.915.166 2.691-.387 1.775-1.228 3.116-1.869 2.978-1.942-.416-1.337 2.129 2.342 9.87 1.93 4.059 3.226 6.255 2.88 4.88-.524-2.087-2.621-7.244-4.169-10.25-.212-.412.566-.75 1.729-.75 1.163 0 2.274-.563 2.469-1.25 5.221-18.435 6.497-25.228 7.091-37.75 1.445-30.458-5.732-53.014-19.172-60.254-5.785-3.115-14.212-4.192-21.263-2.716M98.25 19.408c-2.424 2.557-3.04 6.606-1 6.57.688-.012 2.367-.881 3.732-1.93 1.828-1.404 2.825-1.623 3.78-.831.931.774 2.042.737 3.941-.127l2.643-1.205-5.272-2.442c-2.9-1.344-5.34-2.435-5.423-2.426-.083.01-1.164 1.086-2.401 2.391m22.191 21.144c-1.86 1.487-1.836 1.519.559.767 1.375-.431 3.94-.759 5.7-.729 1.759.031 2.97-.314 2.691-.767-.865-1.399-6.903-.907-8.95.729M119 49.271c0 .833.675 1.774 1.5 2.091 1.845.708 4.5-.222 4.5-1.576 0-.55-.732-.719-1.627-.376-.894.344-2.244.112-3-.515-1.061-.881-1.373-.796-1.373.376m15 4.455c0 2.207 1.627 3.3 3.75 2.52.688-.253 1.25-.888 1.25-1.412 0-.524-.518-.632-1.152-.24-.633.391-1.758-.118-2.5-1.132-1.288-1.762-1.348-1.75-1.348.264m-4.699 2.646c-.613 1.995-.714 3.628-.226 3.628 1.044 0 2.294-4.394 1.73-6.086-.215-.644-.892.462-1.504 2.458M118 62.847c0 .428 1.291 2.016 2.87 3.528 2.491 2.387 3.306 2.637 6.182 1.891 4.257-1.103 5.049-3.081.995-2.486-1.911.28-4.29-.316-6.527-1.636-1.936-1.142-3.52-1.726-3.52-1.297m-32.929 1.935c-.102 3.268 2.593 9.232 4.128 9.139 1.014-.061 1.024-.191.045-.585-.691-.279-1.029-.875-.75-1.325.278-.451-.363-2.775-1.424-5.165-1.462-3.295-1.946-3.794-1.999-2.064m67.929.159c0 1.068-.45 2.219-1 2.559-1.511.934-1.198 2.5.5 2.5 1.048 0 1.5-1.056 1.5-3.5 0-1.925-.225-3.5-.5-3.5s-.5.873-.5 1.941m-58.44 9.963c-.432.698-.292 1.764.31 2.366 1.476 1.476 2.036.664 1.177-1.704-.519-1.428-.907-1.601-1.487-.662m6.186 1.683c-1.295 1.295-.808 5.175.722 5.762.807.31 1.664.246 1.903-.143.691-1.121-1.797-6.446-2.625-5.619m-18.758 31.212c-5.486 8.062-6.388 9.567-5.352 8.926 1.514-.936 8.791-11.632 8.269-12.154-.236-.235-1.548 1.217-2.917 3.228m68.935 14.784c-.042.505-.24 1.817-.441 2.917-1.442 7.889-1.519 8.945-.548 7.5 1.262-1.878 2.521-9.878 1.686-10.713-.341-.341-.654-.208-.697.296m8.167 63.441c-2.91 2.187-4.748 3.976-4.085 3.976.664 0 2.565-1.143 4.226-2.541s3.204-2.357 3.43-2.132c.661.661-3.77 11.925-5.871 14.923-1.059 1.512-1.469 2.75-.909 2.75 1.718 0 10.108-19.344 8.91-20.543-.225-.225-2.79 1.381-5.701 3.567M113 187.5c1.292 1.375 2.574 2.5 2.849 2.5.275 0-.557-1.125-1.849-2.5-1.292-1.375-2.574-2.5-2.849-2.5-.275 0 .557 1.125 1.849 2.5m-2.5 6.5c.34.55 1.068 1 1.618 1s.722-.45.382-1c-.34-.55-1.068-1-1.618-1s-.722.45-.382 1m10.5-.591c0 .19.675.906 1.5 1.591.865.718 1.5.815 1.5.229 0-.558-.675-1.274-1.5-1.591-.825-.316-1.5-.419-1.5-.229m43 9.091c-1.375.786-2.024 1.445-1.441 1.465.582.019 1.932-.626 3-1.433 2.469-1.868 1.68-1.884-1.559-.032"/></svg>