<svg width="20" height="21" viewBox="0 0 20 21" fill="none" xmlns="http://www.w3.org/2000/svg">
<path d="M9.16669 3.83398H3.33335C2.89133 3.83398 2.4674 4.00958 2.15484 4.32214C1.84228 4.6347 1.66669 5.05862 1.66669 5.50065V17.1673C1.66669 17.6093 1.84228 18.0333 2.15484 18.3458C2.4674 18.6584 2.89133 18.834 3.33335 18.834H15C15.442 18.834 15.866 18.6584 16.1785 18.3458C16.4911 18.0333 16.6667 17.6093 16.6667 17.1673V11.334" stroke="black" stroke-width="2" stroke-linecap="round" stroke-linejoin="round"/>
<path d="M15.4167 2.58417C15.7482 2.25265 16.1978 2.06641 16.6667 2.06641C17.1355 2.06641 17.5852 2.25265 17.9167 2.58417C18.2482 2.91569 18.4345 3.36533 18.4345 3.83417C18.4345 4.30301 18.2482 4.75265 17.9167 5.08417L10 13.0008L6.66669 13.8342L7.50002 10.5008L15.4167 2.58417Z" stroke="black" stroke-width="2" stroke-linecap="round" stroke-linejoin="round"/>
</svg>
