<svg width="25" height="24" viewBox="0 0 25 24" fill="none" xmlns="http://www.w3.org/2000/svg">
<g clip-path="url(#clip0_211_4978)">
<path d="M12.9056 15C14.5625 15 15.9056 13.6569 15.9056 12C15.9056 10.3431 14.5625 9 12.9056 9C11.2488 9 9.90564 10.3431 9.90564 12C9.90564 13.6569 11.2488 15 12.9056 15Z" stroke="black" stroke-width="2" stroke-linecap="round" stroke-linejoin="round"/>
<path d="M20.3056 15C20.1725 15.3016 20.1328 15.6362 20.1916 15.9606C20.2505 16.285 20.4051 16.5843 20.6356 16.82L20.6956 16.88C20.8816 17.0657 21.0291 17.2863 21.1298 17.5291C21.2304 17.7719 21.2822 18.0322 21.2822 18.295C21.2822 18.5578 21.2304 18.8181 21.1298 19.0609C21.0291 19.3037 20.8816 19.5243 20.6956 19.71C20.5099 19.896 20.2893 20.0435 20.0465 20.1441C19.8037 20.2448 19.5435 20.2966 19.2806 20.2966C19.0178 20.2966 18.7576 20.2448 18.5148 20.1441C18.272 20.0435 18.0514 19.896 17.8656 19.71L17.8056 19.65C17.57 19.4195 17.2706 19.2648 16.9462 19.206C16.6218 19.1472 16.2873 19.1869 15.9856 19.32C15.6899 19.4468 15.4376 19.6572 15.2599 19.9255C15.0823 20.1938 14.9869 20.5082 14.9856 20.83V21C14.9856 21.5304 14.7749 22.0391 14.3999 22.4142C14.0248 22.7893 13.5161 23 12.9856 23C12.4552 23 11.9465 22.7893 11.5714 22.4142C11.1964 22.0391 10.9856 21.5304 10.9856 21V20.91C10.9779 20.579 10.8708 20.258 10.6782 19.9887C10.4855 19.7194 10.2164 19.5143 9.90564 19.4C9.60402 19.2669 9.26945 19.2272 8.94505 19.286C8.62066 19.3448 8.32132 19.4995 8.08564 19.73L8.02564 19.79C7.83989 19.976 7.61932 20.1235 7.37652 20.2241C7.13372 20.3248 6.87347 20.3766 6.61064 20.3766C6.34781 20.3766 6.08756 20.3248 5.84476 20.2241C5.60196 20.1235 5.38139 19.976 5.19564 19.79C5.00969 19.6043 4.86217 19.3837 4.76152 19.1409C4.66087 18.8981 4.60907 18.6378 4.60907 18.375C4.60907 18.1122 4.66087 17.8519 4.76152 17.6091C4.86217 17.3663 5.00969 17.1457 5.19564 16.96L5.25564 16.9C5.48618 16.6643 5.64083 16.365 5.69964 16.0406C5.75846 15.7162 5.71875 15.3816 5.58564 15.08C5.45888 14.7842 5.2484 14.532 4.9801 14.3543C4.71181 14.1766 4.39743 14.0813 4.07564 14.08H3.90564C3.37521 14.08 2.8665 13.8693 2.49143 13.4942C2.11635 13.1191 1.90564 12.6104 1.90564 12.08C1.90564 11.5496 2.11635 11.0409 2.49143 10.6658C2.8665 10.2907 3.37521 10.08 3.90564 10.08H3.99564C4.32663 10.0723 4.64764 9.96512 4.91694 9.77251C5.18623 9.5799 5.39136 9.31074 5.50564 9C5.63875 8.69838 5.67846 8.36381 5.61964 8.03941C5.56083 7.71502 5.40618 7.41568 5.17564 7.18L5.11564 7.12C4.92969 6.93425 4.78217 6.71368 4.68152 6.47088C4.58087 6.22808 4.52907 5.96783 4.52907 5.705C4.52907 5.44217 4.58087 5.18192 4.68152 4.93912C4.78217 4.69632 4.92969 4.47575 5.11564 4.29C5.30139 4.10405 5.52196 3.95653 5.76476 3.85588C6.00756 3.75523 6.26781 3.70343 6.53064 3.70343C6.79347 3.70343 7.05372 3.75523 7.29652 3.85588C7.53932 3.95653 7.75989 4.10405 7.94564 4.29L8.00564 4.35C8.24132 4.58054 8.54066 4.73519 8.86505 4.794C9.18945 4.85282 9.52402 4.81312 9.82564 4.68H9.90564C10.2014 4.55324 10.4537 4.34276 10.6313 4.07447C10.809 3.80618 10.9044 3.49179 10.9056 3.17V3C10.9056 2.46957 11.1164 1.96086 11.4914 1.58579C11.8665 1.21071 12.3752 1 12.9056 1C13.4361 1 13.9448 1.21071 14.3199 1.58579C14.6949 1.96086 14.9056 2.46957 14.9056 3V3.09C14.9069 3.41179 15.0023 3.72618 15.1799 3.99447C15.3576 4.26276 15.6099 4.47324 15.9056 4.6C16.2073 4.73312 16.5418 4.77282 16.8662 4.714C17.1906 4.65519 17.49 4.50054 17.7256 4.27L17.7856 4.21C17.9714 4.02405 18.192 3.87653 18.4348 3.77588C18.6776 3.67523 18.9378 3.62343 19.2006 3.62343C19.4635 3.62343 19.7237 3.67523 19.9665 3.77588C20.2093 3.87653 20.4299 4.02405 20.6156 4.21C20.8016 4.39575 20.9491 4.61632 21.0498 4.85912C21.1504 5.10192 21.2022 5.36217 21.2022 5.625C21.2022 5.88783 21.1504 6.14808 21.0498 6.39088C20.9491 6.63368 20.8016 6.85425 20.6156 7.04L20.5556 7.1C20.3251 7.33568 20.1705 7.63502 20.1116 7.95941C20.0528 8.28381 20.0925 8.61838 20.2256 8.92V9C20.3524 9.29577 20.5629 9.54802 20.8312 9.72569C21.0995 9.90337 21.4139 9.99872 21.7356 10H21.9056C22.4361 10 22.9448 10.2107 23.3199 10.5858C23.6949 10.9609 23.9056 11.4696 23.9056 12C23.9056 12.5304 23.6949 13.0391 23.3199 13.4142C22.9448 13.7893 22.4361 14 21.9056 14H21.8156C21.4939 14.0013 21.1795 14.0966 20.9112 14.2743C20.6429 14.452 20.4324 14.7042 20.3056 15Z" stroke="black" stroke-width="2" stroke-linecap="round" stroke-linejoin="round"/>
</g>
<defs>
<clipPath id="clip0_211_4978">
<rect width="24" height="24" fill="white" transform="translate(0.90564)"/>
</clipPath>
</defs>
</svg>
