<svg xmlns="http://www.w3.org/2000/svg" width="256" height="256"><path fill="#1976D2" fill-opacity=".02" fill-rule="evenodd" d="M0 128.004v128.004l128.25-.254 128.25-.254.254-127.75L257.008 0H0v128.004m.485.496c0 70.4.119 99.053.265 63.672.146-35.38.146-92.98 0-128C.604 29.153.485 58.1.485 128.5"/><path fill="#1976D2" fill-opacity=".036" fill-rule="evenodd" d="M109.5 5.594c-18.939 3.717-24.263 4.978-25.732 6.096-.697.531-3.406 1.755-6.018 2.721-2.612.965-4.75 2.085-4.75 2.49 0 .404-1.601.609-3.559.454-3.153-.248-4.16.342-8.849 5.183C57.682 25.542 54.599 28 53.74 28s-2.698 1.35-4.087 3c-1.388 1.65-3.093 3-3.789 3C44.555 34 28 50.783 28 52.11c0 .411-.588 1.342-1.306 2.069-.718.726-2.376 3.233-3.684 5.571-1.308 2.337-2.734 4.25-3.168 4.25-.906 0-3.832 5.353-4.325 7.909C14.948 74.868 10.821 83 9.89 83 9.4 83 9 84.378 9 86.062s-1.222 7.196-2.715 12.25C3.716 107.007 3.576 108.547 3.677 127c.095 17.563.369 20.543 2.751 30 1.455 5.775 3.48 12.075 4.5 14 1.02 1.925 2.151 4.902 2.513 6.615.362 1.713 1.536 4.057 2.609 5.208 1.072 1.151 1.95 2.589 1.95 3.194s1.26 2.761 2.799 4.792c1.54 2.03 4.24 5.577 6 7.882C28.56 200.997 30 203.179 30 203.54c0 .362 1.238 1.908 2.75 3.437a158.846 158.846 0 0 1 5.276 5.651c4.701 5.344 20.447 17.695 24.224 19 .963.333 1.75.944 1.75 1.359 0 .414 2.016 1.318 4.481 2.008s4.995 1.873 5.622 2.63c.628.756 1.874 1.389 2.769 1.407.896.017 2.502.692 3.569 1.5 1.068.807 3.099 1.468 4.515 1.468 1.415 0 4.253.9 6.305 2 2.248 1.205 5.642 2 8.535 2 2.642 0 5.334.53 5.982 1.178 1.442 1.442 42.231 1.417 44.957-.027.971-.514 4-1.234 6.732-1.6 2.732-.366 5.473-1.086 6.092-1.6.619-.513 1.365-.693 1.659-.399.591.59 7.942-2.592 8.863-3.837.319-.432 2.331-1.07 4.471-1.417 2.139-.347 4.775-1.456 5.857-2.465 1.083-1.008 2.562-1.833 3.289-1.833.726 0 2.733-1.35 4.459-3 1.727-1.65 3.864-3 4.748-3 .885 0 2.995-1.51 4.688-3.356 1.694-1.845 4.954-4.182 7.244-5.192 2.647-1.168 4.163-2.488 4.163-3.625 0-1.125 1.02-2.033 2.75-2.446 3.967-.948 4.479-1.4 3.257-2.872-.832-1.003-.371-1.826 1.952-3.479 1.672-1.192 3.041-2.711 3.041-3.377 0-.666 1.56-2.818 3.467-4.781 1.907-1.963 3.944-4.65 4.526-5.971.582-1.321 2.172-3.93 3.533-5.799 1.36-1.869 2.474-4.408 2.474-5.643 0-1.235.675-2.504 1.5-2.821.825-.316 1.5-1.531 1.5-2.699s.9-3.268 2-4.666c1.1-1.399 2-3.517 2-4.708 0-1.191.444-2.609.988-3.153.543-.543 1.257-3.405 1.586-6.361.329-2.955 1.065-6.538 1.637-7.962 2.687-6.698 1.578-48.877-1.386-52.72-.48-.622-1.545-3.772-2.368-7C243.794 82.84 239.944 74 238.764 74c-.42 0-.771-.787-.779-1.75-.032-3.694-2.817-9.644-4.87-10.403-1.163-.43-2.115-1.178-2.115-1.662 0-.483-.893-1.909-1.985-3.168-1.306-1.505-1.817-3.183-1.494-4.903.27-1.438.242-2.099-.063-1.47-.815 1.684-4.295.445-5.001-1.781-.526-1.655-4.354-5.575-17.466-17.883-1.476-1.385-3.765-3.091-5.087-3.789-5.091-2.69-6.687-3.82-9.82-6.953-2.07-2.07-4.223-3.238-5.97-3.238-1.502 0-3.605-.661-4.673-1.468-1.067-.808-2.752-1.483-3.743-1.5-.991-.018-3.466-.902-5.5-1.966S163.8 9.601 160.5 8.954c-3.3-.648-8.307-1.799-11.126-2.558-7.458-2.008-31.287-2.487-39.874-.802M174 8.5c0 1.03.655 1.52 1.75 1.31 2.108-.406 1.975-2.181-.197-2.633-.906-.189-1.553.362-1.553 1.323m-64.5 7.023c-2.75.764-6.211 1.409-7.691 1.433-1.48.024-2.951.465-3.27.98-.318.515-1.357.907-2.309.871-3.524-.133-10.603 2.108-11.452 3.625-.483.863-1.757 1.568-2.831 1.568-1.075 0-3.633.9-5.686 2-2.052 1.1-4.526 2-5.496 2-.971 0-1.765.473-1.765 1.052 0 .579-1.314 1.51-2.92 2.07-1.606.56-3.167 1.661-3.468 2.448-.302.786-1.13 1.43-1.84 1.43-.71 0-1.853.9-2.54 2s-1.895 2-2.684 2c-.789 0-2.089.934-2.889 2.076-.799 1.142-2.961 2.829-4.803 3.75-1.843.921-3.514 2.548-3.714 3.617-.199 1.069-1.438 2.789-2.752 3.823-1.315 1.033-2.39 2.276-2.39 2.761 0 .485-1.013 1.949-2.25 3.253-3.079 3.244-5.249 6.028-6.05 7.764-.369.801-1.408 2.469-2.308 3.706-.907 1.248-1.159 2.25-.565 2.25.589 0-.468 1.68-2.35 3.734-1.882 2.054-3.691 5.092-4.02 6.75-.33 1.659-1.417 4.816-2.417 7.016-4.785 10.531-5.954 16.46-6.282 31.868C12.392 138.553 14.693 156 17.325 156c.489 0 .608.733.264 1.629-.694 1.808 1.354 8.371 2.612 8.371.439 0 .799 1.143.799 2.54 0 2.951 3.59 10.46 5.001 10.46.529 0 1.239 1.107 1.578 2.459.34 1.352 1.248 2.983 2.019 3.622.771.64 1.402 1.803 1.402 2.584 0 .781.44 1.963.977 2.627.538.664 2.788 3.373 5 6.019 2.213 2.646 4.023 5.233 4.023 5.75 0 .516.645.939 1.433.939s1.691.816 2.008 1.813c.316.997 2.597 3.238 5.067 4.98 2.471 1.741 4.492 3.625 4.492 4.186 0 .562.675 1.021 1.5 1.021s1.5.441 1.5.98c0 .538 1.913 1.941 4.25 3.116 2.337 1.175 4.959 2.759 5.826 3.518 1.938 1.698 11.051 6.377 12.424 6.379.55.001 3.025.974 5.5 2.162a987.74 987.74 0 0 0 6.033 2.876c.843.393 3.093 1.049 5 1.457 1.907.409 4.058 1.22 4.781 1.803.791.638 9.754 1.238 22.5 1.507 17.987.38 21.771.202 25.058-1.175 2.13-.893 5.055-1.628 6.5-1.634 4.104-.017 10.799-2.376 21.128-7.447 11.596-5.691 15.396-7.805 15.84-8.813.188-.424 1.618-1.432 3.179-2.239 1.562-.807 3.099-2.261 3.416-3.229.318-.969 2.842-3.008 5.611-4.533 2.768-1.524 5.318-3.514 5.667-4.421.348-.908 2.805-3.868 5.46-6.58 2.655-2.711 4.827-5.573 4.827-6.36 0-.786.692-1.695 1.537-2.02.846-.324 2.173-2.11 2.949-3.968.777-1.859 1.885-3.379 2.463-3.379.578 0 1.051-.502 1.051-1.115 0-.614 1.575-4.479 3.5-8.589 1.925-4.111 3.5-8.139 3.5-8.951 0-.812.462-2.34 1.028-3.396.565-1.056 1.465-3.952 2-6.435a2243.67 2243.67 0 0 1 2.019-9.264c.576-2.613 1.084-11.794 1.129-20.404.078-14.954-.063-16.117-3.148-26-1.776-5.69-3.634-10.773-4.129-11.296-.494-.522-.899-1.688-.899-2.59 0-3.058-6.06-13.844-8.151-14.508-1.511-.479-1.925-1.274-1.587-3.044.262-1.369-.161-2.909-.986-3.594-.795-.659-2.852-3.25-4.573-5.756C214.113 52.828 205.574 44 204.104 44c-.545 0-1.58-.842-2.3-1.87-2.376-3.391-14.249-11.86-19.804-14.124-1.375-.561-3.625-1.63-5-2.377-1.375-.746-3.738-1.652-5.25-2.012-1.512-.36-2.75-1.044-2.75-1.519 0-.475-3.488-1.62-7.75-2.544a756.042 756.042 0 0 1-15.75-3.63c-9.591-2.339-28.27-2.547-36-.401M185 19c0 .55.45 1 1 1s1-.45 1-1-.45-1-1-1-1 .45-1 1m24.522 40.07c.498 1.568.15 2.203-1.432 2.617-1.498.391-2.09 1.347-2.09 3.371 0 3.169-1.624 4.718-3.246 3.096-.761-.761-2.15-.216-4.806 1.888-2.055 1.627-4.201 2.958-4.77 2.958-.57 0-1.721.686-2.559 1.524-1.365 1.364-1.648 1.286-2.721-.75-.659-1.251-1.656-2.572-2.216-2.937-1.896-1.234-8.735-.147-10.005 1.59-1.148 1.57-1.46 1.503-4.013-.862-1.522-1.411-3.194-2.565-3.716-2.565-.521 0-.948-.81-.948-1.8 0-4.832-5.172-5.598-6.543-.969-.773 2.609-1.716 3.442-4.898 4.324-2.168.601-4.104 1.58-4.302 2.175-.199.595 1.002 2.635 2.668 4.532 1.666 1.898 2.715 3.764 2.331 4.148-.384.385-.261 1.012.273 1.394.534.383 2.046 2.834 3.36 5.446l2.389 4.75h11.239c10.424 0 11.344-.157 12.68-2.171 1.549-2.332 4.35-1.696 3.403.772-.387 1.008.362 1.431 2.681 1.513 10.53.371 18.38.395 19.469.058.817-.252 1.25-2.452 1.25-6.352 0-5.146.241-5.92 1.75-5.626 1.449.282 1.693 1.22 1.416 5.462-.194 2.985.123 5.404.759 5.798 2.058 1.271 4.933-.53 5.585-3.499.357-1.625 1.258-2.955 2.002-2.955 2.163 0 2.878-3.912 1.078-5.9-.874-.967-1.59-2.44-1.59-3.273 0-.834-1.033-2.718-2.295-4.187-1.933-2.25-2.817-2.568-5.591-2.013-3.033.607-3.275.469-3.043-1.734.477-4.543-1.223-11.893-2.752-11.893-1.015 0-1.256.625-.797 2.07m-10.319 19.744c-2.593 1.253-3.233 2.12-3 4.062.431 3.587 2.431 3.704 3.135.183.691-3.455 3.041-3.308 4.131.26.366 1.2.882 1.667 1.145 1.04.264-.628-.103-2.491-.817-4.14-1.295-2.994-1.301-2.996-4.594-1.405m-32.63 1.715c-1.493 2.279-1.505 2.682-.115 4.072 1.389 1.389 1.542 1.258 1.542-1.33 0-1.579.54-3.411 1.2-4.071.792-.792.831-1.2.115-1.2-.597 0-1.831 1.138-2.742 2.529M146 96c-1.333.862-1.333.969 0 .969.825 0 2.175-.436 3-.969 1.333-.862 1.333-.969 0-.969-.825 0-2.175.436-3 .969m-112.948 4.17c-5.767 1.655-5.985 2.477-6.02 22.652-.031 17.842.034 18.435 2.507 22.655 1.5 2.558 3.939 4.996 5.958 5.954 1.88.893 3.656 2.008 3.947 2.479.291.471 3.011 1.166 6.043 1.545 5.884.735 7.249 2.546 3.45 4.579-1.956 1.047-2.05 1.852-1.822 15.581.225 13.498.396 14.644 2.516 16.931 3.017 3.256 8.159 3.305 11.607.109 3.028-2.806 4.041-9.633 3.358-22.639-.41-7.832-.659-8.654-3.231-10.706-3.359-2.678-2.933-3.27 2.765-3.844 9.875-.995 11.989-1.648 12.875-3.979.476-1.252 1.232-2.437 1.68-2.632 1.225-.534 5.315-6.611 5.315-7.898 0-2.816 2.598.116 3.448 3.892.632 2.805 1.384 4.046 2.25 3.713.716-.274 1.302-.098 1.302.391 0 1.128 11.753 7.047 13.993 7.047.921 0 1.993.319 2.383.709 2.15 2.15 20.076-1.181 25.453-4.729 2.38-1.571 4.968-2.611 5.75-2.311 1.057.405 1.421-.328 1.421-2.862 0-1.874.449-3.856.999-4.406.569-.569 1.16-9.428 1.374-20.62.31-16.168.139-19.531-.972-19.104-.743.284-2.068-.201-2.947-1.08-2.274-2.274-8.075-2.027-10.746.458-2.07 1.926-2.228 3.053-2.528 18.058-.278 13.929-.537 16.074-2 16.552-.924.302-3.186 1.218-5.027 2.035-4.412 1.959-9.276.988-13.253-2.644l-3.131-2.86.349-13.348c.464-17.754-.576-19.895-9.37-19.306-3.695.247-5.355.879-6.461 2.459-1.408 2.009-1.592 2.033-3.365.429-1.031-.934-1.596-2.148-1.256-2.699 1.133-1.833-10.463-.224-12.651 1.755-1.837 1.663-2.016 3.068-2.029 15.919-.016 17.038-.333 18.514-4.137 19.275-1.59.318-3.133.97-3.429 1.449-1.808 2.925-14.137-1.298-14.417-4.938-.071-.93-.271-7.938-.444-15.574l-.314-13.882-3.068-2.868c-3.366-3.145-3.2-3.11-8.125-1.697m115.269 1.9c-2.871 1.839-3.122 2.393-2.603 5.733 1.313 8.434 3.101 9.496 15.548 9.238 6.896-.143 7.788 1.059 4.687 6.314-2.538 4.302-3.509 4.549-4.373 1.11-.738-2.942-4.021-4.465-9.625-4.465-3.539 0-4.104.372-5.892 3.876-1.087 2.132-1.753 4.101-1.478 4.376.275.275.682 5.993.904 12.707.223 6.714.886 12.788 1.474 13.496 2.76 3.326 13.407 2.104 14.607-1.675.311-.979.9-1.78 1.309-1.78.982 0 5.121 5.625 5.121 6.96 0 .572.675 1.04 1.5 1.04s1.5-.675 1.5-1.5.675-1.5 1.5-1.5 1.5.45 1.5 1c0 .593 3.667 1 9 1 4.95 0 9-.42 9-.933 0-.953 2.961-2.235 4.169-1.805 1.175.418 5.906-4.617 7.505-7.988 1.792-3.776 3.326-3.429 3.326.751 0 1.599.74 4.46 1.645 6.357 1.536 3.22 2.003 3.472 7.033 3.784l5.389.334 1.855-4c1.417-3.055 1.887-6.6 1.988-15 .159-13.158-.625-16.556-4.225-18.305-3.187-1.548-3.431-2.767-.697-3.482 1.093-.286 2.471-1.791 3.063-3.346.591-1.554 1.508-3.095 2.039-3.422.947-.586-3.36-9.376-5.13-10.469-.483-.299-1.76.007-2.838.68-1.555.971-2.277.96-3.497-.052-1.7-1.411-3.625-.709-3.625 1.32 0 .719-.958 2.525-2.13 4.014-1.903 2.42-1.985 2.979-.765 5.259.751 1.403 1.372 3.283 1.38 4.177.009.995.699 1.511 1.779 1.329.97-.163 2.758.399 3.972 1.25 2.204 1.544 2.204 1.547.097 1.547-3.418 0-6.333 3.162-7.637 8.285-1.133 4.457-1.348 4.69-3.12 3.394-1.556-1.138-1.838-2.375-1.543-6.785.99-14.833-1.118-21.361-7.296-22.597-1.528-.305-3.021-.947-3.317-1.426-.296-.479-9.399-.863-20.229-.854-18.084.015-19.95.183-22.87 2.053M205 101c0 .55.423 1 .941 1s1.219-.45 1.559-1c.34-.55-.084-1-.941-1s-1.559.45-1.559 1m-34.721 17.491c-.846.944-.885 1.474-.128 1.726 1.844.615 14.828-1.441 14.318-2.267-.858-1.388-12.871-.93-14.19.541m-7.784 19.49c.074 4.39.442 8.29.819 8.667.378.377.686-.015.686-.871 0-.855.792-2.533 1.76-3.729 1.555-1.921 2.754-2.176 10.33-2.197 8.929-.025 13.428-1.198 8.858-2.309-1.346-.327-4.923-.516-7.948-.42-6.723.215-11.678-1.702-12.46-4.819-1.194-4.755-2.175-2.03-2.045 5.678m42.505-1.04c0 1.618.418 3.199.928 3.515 1.22.753 2.292-2.718 1.488-4.815-1.014-2.643-2.416-1.888-2.416 1.3M31.813 155.683c.721.289 1.584.253 1.916-.079.332-.332-.258-.568-1.312-.525-1.165.048-1.402.285-.604.604M41.5 194c.34.55 1.041 1 1.559 1s.941-.45.941-1-.702-1-1.559-1-1.281.45-.941 1m170.5 0c0 .55.45 1 1 1s1-.45 1-1-.45-1-1-1-1 .45-1 1m-166 5.559c0 .857.457 1.276 1.016.931.559-.346.758-1.047.441-1.559-.857-1.387-1.457-1.129-1.457.628M21.5 201c-.34.55.11 1 1 1s1.34-.45 1-1c-.34-.55-.79-1-1-1-.21 0-.66.45-1 1M55 236.059c0 .582.45.781 1 .441s1-.816 1-1.059-.45-.441-1-.441-1 .477-1 1.059"/><path fill="#1976D2" fill-opacity=".149" fill-rule="evenodd" d="M112 6.604c-3.462.419-15.037 2.786-22.208 4.542-2.039.5-3.978 1.346-4.309 1.881-.33.535-1.396.973-2.369.973-.972 0-5.498 2.011-10.058 4.47-4.56 2.458-9.234 4.769-10.385 5.134-1.152.366-3.383 1.954-4.959 3.53C56.136 28.711 54.357 30 53.759 30c-1.149 0-14.104 11.105-16.915 14.5-.911 1.1-3.273 3.8-5.249 6-1.976 2.2-3.594 4.305-3.594 4.679-.001.373-.564 1.273-1.253 2C23.149 60.978 11 84.074 11 87.117c0 .687-.866 3.755-1.925 6.816-4.567 13.209-5.85 29.409-3.739 47.218C7.205 156.92 10.67 168.83 16.058 178c.484.825 1.723 3.3 2.753 5.5 2.848 6.083 9.145 15.546 10.756 16.164.788.303 1.433 1.129 1.433 1.837 0 3.3 21.515 22.743 30.5 27.562 13.712 7.354 17.635 9.192 25.437 11.915 5.124 1.789 14.763 3.982 22.73 5.173 12.493 1.867 15.044 1.953 26.333.886 12.588-1.189 22.53-2.917 24.642-4.283.628-.406 2.876-.961 4.995-1.232 2.12-.271 4.006-.95 4.192-1.508.186-.558.854-1.014 1.485-1.014 2.088 0 12.171-4.457 12.986-5.74.44-.693 1.398-1.26 2.129-1.26 1.786 0 11.098-5.672 16.416-10C213.71 213.159 231 193.943 231 190.708c0-.769.875-2.19 1.944-3.157 1.069-.968 2.757-3.736 3.75-6.152.993-2.415 2.144-4.393 2.556-4.395.412-.002.75-.798.75-1.769 0-.97.84-3.333 1.866-5.25 4.063-7.59 8.087-28.932 8.105-42.985.019-14.633-6.379-43.813-11.01-50.21-1.078-1.49-1.961-3.213-1.961-3.83s-1.575-3.494-3.5-6.394-3.5-5.741-3.5-6.313c0-.571-.675-1.298-1.5-1.615-.825-.316-1.5-1.102-1.5-1.745s-1.687-3.044-3.75-5.335c-2.062-2.291-4.945-5.491-6.406-7.112-7.903-8.764-19.171-17.684-27.844-22.04-2.708-1.36-5.192-2.908-5.521-3.44-.329-.532-2.596-1.47-5.038-2.085-2.443-.615-4.441-1.515-4.441-2 0-.484-.8-.881-1.777-.881-.978 0-2.668-.623-3.755-1.385-1.088-.762-5.29-1.899-9.339-2.527-4.049-.628-8.27-1.628-9.38-2.223-2.03-1.086-31.155-2.059-37.749-1.261m4.857 5.873c-.262.262-3.825.941-7.917 1.508-4.092.568-8.565 1.432-9.94 1.921-1.375.489-5.2 1.685-8.5 2.658-5.363 1.581-16.723 6.643-25 11.138-3.665 1.991-21.854 16.306-22.375 17.61-.206.516-1.175 1.738-2.154 2.717-3.447 3.447-12.811 16.536-15.752 22.02-11.063 20.621-14.894 37.227-13.95 60.451.62 15.238 2.311 23.091 7.748 36 4.385 10.407 6.45 14.643 7.613 15.608.754.625 1.37 2.207 1.37 3.514 0 1.464.586 2.378 1.525 2.378.838 0 1.915 1.012 2.392 2.25.477 1.238 5.528 7.054 11.225 12.925 10.098 10.408 21.784 19.062 31.465 23.3 2.141.937 5.018 2.28 6.393 2.984 1.375.704 4.975 2.074 8 3.046 3.025.971 6.625 2.327 8 3.012 1.375.686 5.65 1.561 9.5 1.945 3.85.384 8.575.866 10.5 1.071 13.007 1.385 23.747.158 48-5.486 4.617-1.075 22.278-9.925 23.3-11.676.44-.754 1.611-1.371 2.604-1.371.992 0 2.906-1.013 4.253-2.25 1.346-1.238 3.936-3.375 5.755-4.75 5.183-3.92 8.025-6.81 16.712-17 4.455-5.225 8.417-10.513 8.805-11.75.388-1.238 1.125-2.25 1.638-2.25.513 0 .933-.495.933-1.1 0-.605 1.8-4.889 4-9.519 2.2-4.631 4-9.108 4-9.95 0-.842.697-2.878 1.549-4.526.852-1.647 2.024-6.687 2.605-11.2.58-4.513 1.357-10.455 1.725-13.205.962-7.187.696-15.884-.75-24.5-1.452-8.653-8.602-30.747-10.705-33.079-.783-.868-1.424-2.296-1.424-3.173 0-.877-1.125-2.932-2.5-4.566s-2.5-3.51-2.5-4.168C225 62.762 206.155 42 204.111 42c-.556 0-1.371-.623-1.811-1.384-.44-.762-2.825-2.907-5.3-4.767-14.036-10.551-29.818-17.746-45.5-20.744-12.175-2.328-33.338-3.933-34.643-2.628m89.648 54.773c-1.544 10.64-1.024 22.088 1.101 24.213 2.596 2.596 4.52.141 4.266-5.44-.246-5.382.488-7.023 3.139-7.023 1.624 0 1.936.889 2.191 6.24.361 7.569 2.513 8.966 4.672 3.034 3.181-8.741.034-16.713-6.347-16.076-2.845.284-3.029.091-3.064-3.199-.046-4.318-1.016-5.999-3.461-5.999-1.448 0-2.021.976-2.497 4.25m-45.665 1.202c-.605 1.327-2.391 2.948-3.97 3.602-3.626 1.502-3.604 2.482.13 5.759 2.297 2.015 3 3.482 3 6.255 0 4.068 2.408 6.932 5.829 6.932 2.661 0 2.661.001.064-4.981-1.993-3.824-2.017-4.18-.442-6.585 3.364-5.134 7.484-4.634 4.673.568-1.738 3.217-1.766 3.739-.353 6.498.845 1.65 2.255 3.548 3.133 4.218 2.353 1.796 9.65 1.585 11.569-.334 2.376-2.375 1.318-3.884-2.723-3.884-1.958 0-3.903-.338-4.322-.75-.419-.412.101-.76 1.155-.772 1.055-.012 3.042-.902 4.417-1.978 3.419-2.674 5-2.486 5 .596 0 3.91 2.938 8.172 5.913 8.577 1.423.193 4.157.121 6.076-.161 4.522-.664 5.393-3.662 1.327-4.569-6.051-1.351-6.316-1.537-6.316-4.429 0-2.171.822-3.359 3.448-4.982 3.634-2.246 5.399-5.585 3.798-7.186-1.267-1.267-7.93 2.497-11.496 6.496L188 80.424v-2.589c0-3.29-1.586-4.585-6.598-5.387-2.93-.468-4.33-.24-5.237.853-1.422 1.714-4.769 1.172-5.564-.9-.296-.77-1.677-1.401-3.07-1.401-1.817 0-2.531-.534-2.531-1.893 0-2.992-2.888-3.447-4.16-.655M33.259 101.705c-4.622.891-5.259 3.482-5.259 21.383 0 14.591.226 16.936 1.83 19.027 1.006 1.312 2.11 3.153 2.452 4.092 1.509 4.14 17.779 10.786 22.718 9.28.825-.251 3.75-.532 6.5-.622 2.75-.091 5.888-.773 6.973-1.515 1.084-.743 2.72-1.35 3.633-1.35 2.441 0 8.604-7.285 9.889-11.688.676-2.316.993-10.051.809-19.706l-.304-15.893-2.686-2.004c-2.356-1.758-3.059-1.85-5.717-.749-1.667.69-3.453 1.769-3.969 2.398-.516.628-1.175 7.442-1.465 15.142-.29 7.7-.828 14.986-1.196 16.19-.751 2.459-7.728 5.31-12.992 5.31-3.322 0-8.543-2.171-10.294-4.282-.571-.688-1.175-7.981-1.355-16.369-.317-14.732-.391-15.183-2.826-17.205-2.555-2.124-2.858-2.188-6.741-1.439m55.339 1.792c-2.588 2.398-2.598 2.468-2.576 18.205.019 13.505.301 16.379 1.945 19.798 3.271 6.804 7.301 10.095 15.679 12.807 9.079 2.939 22.9.597 30.092-5.099 5.639-4.467 7.184-9.888 7.329-25.708.066-7.15-.207-14.478-.606-16.286-1.294-5.864-7.993-7.293-12.211-2.604-2.108 2.344-2.251 3.395-2.265 16.696-.009 7.807-.346 14.644-.75 15.194-1.693 2.305-7.352 4.5-11.598 4.5-5.46 0-11.481-2.733-12.115-5.5-.252-1.1-.605-8.416-.783-16.257-.355-15.597-.69-16.517-6.391-17.571-2.454-.454-3.727-.05-5.75 1.825m62.74-.854c-3.718 1.518-4.966 7.36-2.281 10.677 1.675 2.069 2.608 2.188 18.287 2.33 9.088.082 17.003.446 17.589.809 2.036 1.258 1.2 4.535-1.183 4.641-10.035.448-15.279 1.029-16.028 1.778-1.696 1.696-1.94 8.534-.379 10.622 1.302 1.74 2.682 2.004 10.631 2.03 6.662.021 9.367.403 9.988 1.409 2.207 3.57-2.268 5.244-11.548 4.321-6.26-.623-9.09.762-10.247 5.013-1.322 4.857 1.185 8.687 5.799 8.858 1.944.072 6.459.29 10.034.483 5.965.324 10.004-.573 15.938-3.536.791-.395 2.361-2.487 3.489-4.648 2.626-5.033 2.451-12.388-.39-16.378-2.124-2.983-2.672-6.542-1.152-7.481 1.693-1.046 1.904-7.101.411-11.784-2.82-8.847-6.52-10.155-28.958-10.239-10.853-.04-18.206.363-20 1.095m58.283 3.421c-1.519 2.571-1.619 3.527-.621 5.936 2.909 7.023 14 5.464 14-1.969 0-4.554-2.586-7.031-7.341-7.031-3.657 0-4.472.414-6.038 3.064m-61.129 18.308c-1.244 1.898-1.498 4.939-1.273 15.25l.281 12.878 3.401 1.698c3.017 1.506 3.715 1.535 6.186.257 1.533-.793 3.081-1.918 3.442-2.502.361-.584.666-6.968.678-14.187.025-14.835-.41-15.766-7.375-15.766-2.88 0-4.158.567-5.34 2.372m62.206-.59c-.887.979-1.722 3.567-1.856 5.75-.476 7.759.203 22.99 1.086 24.386 1.334 2.108 10.208 2.259 11.776.201 1.955-2.568 1.742-27.038-.261-29.896-1.983-2.832-8.346-3.093-10.745-.441M52.25 159.491 49 160.903v14.849c0 10.215.374 15.222 1.2 16.048 2.76 2.76 11.199.566 12.202-3.172.314-1.17.577-7.647.584-14.393L63 161.971l-3.25-1.982c-3.808-2.322-3.371-2.293-7.5-.498"/><path fill="#1976D2" fill-opacity=".102" fill-rule="evenodd" d="M111.5 8.077c-2.2.508-7.15 1.396-11 1.973-3.85.577-8.418 1.702-10.151 2.499-1.733.798-3.533 1.449-4 1.447-.818-.005-14.274 6.298-17.349 8.125a31.32 31.32 0 0 1-3 1.538c-2.731 1.177-14.716 9.294-15.991 10.831-.69.83-1.544 1.51-1.9 1.51C46.575 36 35 47.73 35 49.285c0 .943-.599 1.715-1.332 1.715-1.174 0-4.572 4.452-9.816 12.858-1.954 3.132-9.85 18.778-10.922 21.642-4.406 11.77-5.905 19.855-6.493 35-.8 20.639 1.716 37.893 7.005 48.035.85 1.631 1.548 3.283 1.552 3.671.003.388 1.356 2.996 3.006 5.794 1.65 2.798 3 5.913 3 6.922 0 1.008.675 2.393 1.5 3.078s1.5 1.658 1.5 2.163c0 1.07 3.616 6.216 6.5 9.25 1.1 1.158 3.758 4.238 5.907 6.846 2.149 2.607 4.512 4.741 5.25 4.741.739 0 1.343.382 1.343.849C43 213.097 52.247 222 53.543 222c.61 0 2.143 1.102 3.408 2.448 1.265 1.347 3.547 2.722 5.071 3.057 1.524.335 3.562 1.483 4.529 2.552.968 1.069 2.189 1.943 2.715 1.943.525 0 4.168 1.534 8.095 3.408 17.263 8.24 38.98 12.19 58.362 10.614 11.579-.941 14.079-1.447 28.277-5.723 7.434-2.239 25.677-10.269 28.5-12.545.55-.444 3.25-2.248 6-4.009 2.75-1.761 8.397-6.611 12.549-10.777 7.442-7.47 18.951-21.05 18.951-22.363 0-.371 1.936-4.146 4.303-8.39 6.371-11.423 7.645-14.956 11.739-32.556 3.12-13.411 2.868-35.14-.566-48.937-1.399-5.622-3.022-11.572-3.607-13.222-1.569-4.43-9.057-19.92-9.909-20.5-.404-.275-1.401-2.075-2.215-4-.814-1.925-2.588-4.678-3.942-6.118-1.355-1.44-4.631-5.378-7.281-8.75-2.649-3.373-5.374-6.132-6.055-6.132-.68 0-1.98-1.134-2.888-2.519-2.423-3.698-16.073-13.465-24.579-17.586a735.274 735.274 0 0 1-9-4.453c-11.403-5.759-30.068-9.617-48.5-10.024-6.6-.146-13.8.151-16 .659m1.5 3.755c-.825.496-5.327 1.382-10.005 1.968-4.678.585-9.853 1.767-11.5 2.626-1.647.859-3.521 1.564-4.164 1.568-.643.003-2.443.642-4 1.419a258.11 258.11 0 0 1-6.831 3.232c-5.344 2.431-15.914 8.66-16.342 9.632-.188.427-2.213 1.727-4.5 2.89-6.848 3.48-21.58 19.449-28.331 30.709-5.003 8.343-11.257 22.348-13.924 31.176-2.724 9.016-2.856 10.363-2.879 29.448-.02 16.408.299 21.078 1.774 26 .988 3.3 2.304 7.8 2.924 10 .62 2.2 1.698 5.125 2.396 6.5C21.826 177.284 27 188.748 27 189.785c0 .668.663 1.215 1.474 1.215.811 0 2.131 1.238 2.932 2.75.802 1.513 4.189 5.594 7.526 9.071 3.337 3.476 6.068 6.739 6.068 7.25 0 .511.525.929 1.167.929.641 0 2.489 1.237 4.106 2.75 6.64 6.212 7.6 6.955 10.597 8.196 1.722.713 3.13 1.612 3.13 1.998 0 .385 4.613 2.976 10.25 5.758 9.294 4.585 20.174 8.499 26.75 9.623 1.375.236 6.1 1.203 10.5 2.15 6.08 1.309 10.4 1.573 18 1.099 14.274-.89 20.446-1.678 21.072-2.691.3-.486 1.884-.883 3.519-.883 1.635 0 4.589-.675 6.563-1.5 1.975-.825 4.344-1.5 5.266-1.5.921 0 4.667-1.532 8.323-3.404 3.657-1.873 8.193-3.915 10.082-4.538 1.888-.623 4.232-2.016 5.209-3.096.977-1.079 2.59-1.962 3.586-1.962.995 0 2.288-.895 2.874-1.988.585-1.094 2.16-2.263 3.499-2.6 1.339-.336 2.707-1.466 3.039-2.511.331-1.046.966-1.901 1.41-1.901 1.114 0 11.127-10.429 15.843-16.5 2.135-2.75 4.633-5.618 5.549-6.372.916-.755 1.666-2.148 1.666-3.095 0-.948.9-2.538 2-3.533 1.1-.995 2.014-2.528 2.032-3.405.017-.877.692-2.469 1.5-3.536.807-1.068 1.468-2.695 1.468-3.615 0-.921.9-2.818 2-4.217 1.1-1.398 2-3.5 2-4.67s.626-3.124 1.392-4.342c.765-1.218 1.686-4.465 2.047-7.215.361-2.75 1.352-7.96 2.202-11.577 1.46-6.214 1.485-22.212.049-31.423-.832-5.338-3.823-16.954-4.633-17.991-.433-.555-1.015-2.814-1.295-5.02-.279-2.207-1.915-6.097-3.635-8.645-1.72-2.549-3.135-5.244-3.144-5.989-.049-3.903-14.484-22.466-22.436-28.855-2.397-1.925-4.926-4.513-5.621-5.75-.695-1.237-1.828-2.25-2.518-2.25-.69 0-2.592-1.125-4.226-2.5s-3.399-2.5-3.921-2.5c-.523 0-1.766-.9-2.761-2-.995-1.1-2.415-2-3.155-2-.74 0-1.345-.363-1.345-.808 0-.444-1.912-1.638-4.25-2.652a5923.4 5923.4 0 0 1-9.624-4.193c-2.956-1.291-6-2.347-6.764-2.347-.764 0-2.171-.429-3.126-.953-5.923-3.253-44.27-6.603-48.236-4.215m94.885 53.807c-1.476 1.778-1.922 20.335-.571 23.778 1.171 2.986 2.751.55 3.197-4.928.453-5.553 1.354-6.786 4.624-6.324 2.076.294 2.403.946 2.675 5.335.17 2.75.716 5.411 1.213 5.913 1.289 1.303 2.977-3.699 2.977-8.823 0-5.454-2.515-8.075-6.838-7.126-3.538.777-4.635-.516-4.326-5.101.255-3.782-1.063-4.999-2.951-2.724M160.818 70.5c-.626 1.375-1.715 2.5-2.419 2.5-2.435 0-2.684 2.277-.434 3.974 1.411 1.064 2.358 2.974 2.534 5.112.155 1.878.331 3.961.391 4.629.061.668 1.047 1.716 2.192 2.329 2.026 1.084 2.063.966 1.386-4.455-.67-5.358-.578-5.673 2.418-8.302 3.792-3.328 3.909-4.287.52-4.287-1.752 0-2.763-.649-3.116-2-.71-2.715-2.098-2.515-3.472.5m36.297 2.877c-6.83 2.47-10.151 10.271-6.558 15.4 1.251 1.787 2.525 2.223 6.5 2.223 5.775 0 6.423-1.356 1.435-3.003-4.691-1.548-6.158-4.331-4.01-7.61.893-1.363 2.687-2.962 3.986-3.554 1.299-.592 2.584-1.922 2.854-2.955.561-2.146.394-2.166-4.207-.501M176 75.064c-1.375.524-3.499 2.702-4.72 4.841l-2.22 3.888 2.22 3.291c2.84 4.21 7.844 5.72 11.346 3.425 2.955-1.936 2.359-3.42-1.108-2.757-2.468.472-5.518-1.117-5.518-2.874 0-.483.93-.878 2.067-.878 3.251 0 9.083-4.946 8.732-7.406-.241-1.686-1.078-2.132-4.299-2.289-2.2-.107-5.125.234-6.5.759m2.192 3.011c.197.591.786 1.075 1.308 1.075s1.111-.484 1.308-1.075c.197-.591-.391-1.075-1.308-1.075s-1.505.484-1.308 1.075m-145.19 25.819c-3.28.913-3.755 3.416-3.811 20.106-.039 11.707.213 13.898 1.894 16.5 1.066 1.65 2.187 3.675 2.492 4.5.304.825 2.775 3.019 5.491 4.876 4.79 3.275 5.251 3.38 15.38 3.5 7.163.085 10.835-.268 11.696-1.126.691-.687 2.218-1.25 3.393-1.25 1.176 0 3.99-1.762 6.255-3.917 4.676-4.448 4.836-5.173 5.685-25.807.549-13.334-.267-16.934-4.054-17.885-1.287-.323-3.335.16-4.829 1.139-2.591 1.698-2.594 1.716-2.594 15.95 0 12.842-.202 14.507-2.045 16.851-3.766 4.786-16.5 6.388-21.228 2.669-1.398-1.1-3.034-2-3.635-2-1.248 0-1.158.936-1.671-17.5-.356-12.806-.571-14.149-2.516-15.75-2.299-1.892-2.219-1.88-5.903-.856m56.375.969c-1.921 1.79-2.05 2.993-1.966 18.351l.089 16.435 3.5 4.644c1.925 2.555 3.915 4.659 4.421 4.676.507.017 1.632.643 2.5 1.39 4.519 3.89 18.713 4.192 28.901.614 5.608-1.969 7.829-3.875 10.723-9.199 1.673-3.079 2.851-27.789 1.609-33.774-.67-3.233-1.034-3.523-4.776-3.8-2.534-.187-4.477.215-5.189 1.073-.69.83-1.2 6.077-1.293 13.299-.192 14.808-1.01 18.397-4.84 21.229-3.99 2.949-13.453 3.057-19.022.217-4.437-2.264-4.543-2.728-5.43-23.871-.262-6.243-.687-11.564-.946-11.822-1.517-1.517-6.416-1.199-8.281.538m63.123-.99c-2.426.514-3.056 1.209-3.294 3.631-.603 6.146.673 6.628 17.832 6.728 16.821.099 19.238.546 21.028 3.891 1.855 3.467-1.022 4.874-10.007 4.892-4.158.009-8.065.346-8.683.75-1.945 1.271-2.565 6.594-1.015 8.714 1.222 1.672 2.696 1.945 10.656 1.98 8.354.037 9.376.249 10.684 2.218 1.301 1.959 1.239 2.383-.617 4.239-1.853 1.853-2.912 2.009-10.42 1.536-8.993-.567-9.852-.205-11.005 4.636-.369 1.553-.056 3.354.784 4.5 1.197 1.635 2.752 1.923 10.728 1.989 5.352.044 11.36-.525 14.093-1.335 4.108-1.218 5.016-1.985 6.602-5.577 3.202-7.252 3.216-7.615.514-13.327-2.096-4.431-2.459-6.244-1.837-9.18 1.379-6.502.659-13.314-1.669-15.792-4.44-4.726-7.531-5.374-25.025-5.248-8.992.065-17.699.405-19.349.755m58.669 2.639c-3.553 4.517-.347 8.935 6.019 8.298 3.896-.39 5.103-3.213 3.254-7.61-1.746-4.152-6.283-4.489-9.273-.688M213.5 110c-.34.55.084 1 .941 1s1.559-.45 1.559-1-.423-1-.941-1-1.219.45-1.559 1m-27.5.383c0 .211.9.619 2 .907 1.1.287 2 .115 2-.384 0-.498-.9-.906-2-.906s-2 .173-2 .383m7.5 6.617c.34.55.816 1 1.059 1s.441-.45.441-1-.477-1-1.059-1-.781.45-.441 1m-41.203 6.7c-1.211.234-2.518 1.411-2.904 2.613-.937 2.918-.654 24.848.332 25.733 2.026 1.819 6.159 1.869 8.344.099 2.147-1.738 2.273-2.532 2.24-14.156-.03-10.752-.266-12.485-1.863-13.652-1.856-1.357-2.236-1.396-6.149-.637m59.836 1.659c-2.042 2.173-2.205 3.255-2.068 13.75.082 6.265.567 12.178 1.077 13.141 1.178 2.222 7.113 2.353 8.902.197 1.562-1.882 2.21-16.763 1.01-23.188-1.238-6.625-4.87-8.213-8.921-3.9M187 128c-1.282.828-1.246.972.25.985.963.008 1.75-.435 1.75-.985 0-1.22-.113-1.22-2 0m-82 19.417c0 .87.713 1.583 1.583 1.583.871 0 1.406-.534 1.188-1.187-.618-1.855-2.771-2.162-2.771-.396m-52.986 13.87c-2.482 1.256-2.486 1.285-2.253 14.683.128 7.383.651 13.842 1.161 14.352.51.51 2.986.619 5.503.242 5.21-.782 4.707.876 5.111-16.845l.246-10.78-2.841-1.47c-3.427-1.772-3.767-1.781-6.927-.182m2.799 23.396c.721.289 1.584.253 1.916-.079.332-.332-.258-.568-1.312-.525-1.165.048-1.402.285-.604.604"/></svg>