<svg xmlns="http://www.w3.org/2000/svg" width="256" height="256"><path fill="#1976D2" fill-opacity=".016" fill-rule="evenodd" d="M0 128.004v128.004l128.25-.254 128.25-.254.254-127.75L257.008 0H0v128.004m.485.496c0 70.4.119 99.053.265 63.672.146-35.38.146-92.98 0-128C.604 29.153.485 58.1.485 128.5"/><path fill="#1976D2" fill-opacity=".207" fill-rule="evenodd" d="M16.324 94.439c-9.27 2.899-14.979 8.64-15.546 15.634-.259 3.193-.076 3.427 2.681 3.427 2.579 0 3.051-.449 3.673-3.5C8.891 101.372 21.081 97.274 46 96.931c10.377-.142 14.134-.832 14.759-2.709.593-1.777-38.67-1.585-44.435.217m188.756 18.965c-.685.825-.953 2.422-.595 3.548.818 2.58 6.255 2.89 7.206.412 1.429-3.726-4.071-7.021-6.611-3.96M15 117v4h10v-8H15v4m19 0v4h11v-8H34v4m18.836 12.25c-.292 14.127-.601 16.707-2.364 19.75-3.274 5.651-8.223 7.504-19.972 7.478-12.175-.027-17.258-2.123-20.484-8.447-2.183-4.279-3.965-14.436-3.996-22.781C6 120.088 5.95 120 3 120H0l.017 7.75c.024 10.469 2.338 20.847 5.727 25.679 1.592 2.27 4.868 5.014 7.756 6.497 4.548 2.335 6.085 2.567 17 2.57 10.804.004 12.498-.245 16.999-2.496 9.28-4.642 11.441-10.256 12.218-31.75l.551-15.25h-7.096l-.336 16.25m24.769-14.328c-4.831 3.185-6.871 7.475-7.333 15.419-.352 6.056-.059 7.843 1.906 11.6 3.019 5.774 6.48 8.198 12.22 8.56 3.132.197 5.751 1.138 8.055 2.895 4.054 3.093 4.726 3.169 6.883.785 1.545-1.707 1.464-1.953-1.312-4.005l-2.957-2.186 2.415-3.558c4.341-6.397 4.582-18.356.504-24.955-3.82-6.181-14.347-8.533-20.381-4.555M107 119.389c0 2.614-.4 3.357-1.75 3.25-1.21-.096-1.848.71-2.066 2.611-.251 2.176.094 2.75 1.653 2.75 1.799 0 2 .833 2.316 9.589.316 8.728.565 9.766 2.77 11.551 1.52 1.23 3.57 1.849 5.5 1.66 2.498-.243 3.135-.803 3.386-2.973.248-2.143-.148-2.737-2-3-2.171-.307-2.326-.82-2.599-8.577l-.291-8.25h2.607c2.254 0 2.564-.372 2.29-2.75-.227-1.978-.878-2.75-2.316-2.75-1.525 0-2.074-.771-2.313-3.25-.287-2.975-.604-3.25-3.75-3.25-3.24 0-3.437.194-3.437 3.389m-23.812-.601c-4.151.66-6.335 5.742-5.974 13.899C77.592 141.229 80.13 145 85.5 145c5.059 0 7.827-3.771 8.308-11.318.674-10.587-3.235-16.068-10.62-14.894m46.312 3.877c-2.557.677-7.5 5.305-7.5 7.022 0 1.895 6.627 1.726 7.362-.187.69-1.799 5.736-2.002 7.438-.3 2.319 2.319 1.326 3.8-2.55 3.802-5.001.002-10.438 2.845-12.089 6.323-3.468 7.302 6.772 14.912 13.616 10.118 1.246-.872 2.223-1.092 2.223-.5 0 .581 1.688 1.058 3.75 1.058l3.75.002-.506-10.985c-.468-10.15-.703-11.182-3.097-13.576-2.619-2.618-8.241-3.878-12.397-2.777m26.5-.008c-2.473.996-5.175 3.7-6.092 6.097-1.783 4.663 2.492 8.857 10.914 10.707 3.987.876 5.226 3.299 2.649 5.184-2.659 1.944-4.227 1.69-7.062-1.145-2.965-2.966-7.409-3.399-7.409-.723 0 7.623 14.405 10.909 20.612 4.702 5.084-5.084 1.642-11.259-7.498-13.452-2.897-.695-5.518-1.915-5.824-2.712-1.451-3.782 5.851-4.987 8.375-1.383 1.038 1.481 2.356 2.084 4.105 1.875 3.638-.434 3.787-2.152.504-5.826-2.22-2.485-3.813-3.26-7.306-3.553-2.458-.207-5.143-.104-5.968.229m28.75.915c-1.593.864-2.75 1.058-2.75.46 0-.568-1.35-1.032-3-1.032h-3v27h7v-9.878c0-10.904.764-12.509 5.69-11.944l2.81.322.284 10.75.284 10.75H199v-10.453c0-5.749-.5-11.549-1.11-12.89-2.022-4.436-8.043-5.85-13.14-3.085M205 135.937V150h7.056l-.278-13.75-.278-13.75-3.25-.313-3.25-.314v14.064m22.157-13.055c-.739.468-3.327.628-5.75.355L217 122.74V150h7v-9.878c0-10.904.764-12.509 5.69-11.944l2.81.322.284 10.75.284 10.75H240v-9.878c0-10.904.764-12.509 5.69-11.944l2.81.322.284 10.75.284 10.75H256v-10.453c0-5.749-.508-11.569-1.13-12.932-2.191-4.809-10.679-5.907-15.054-1.948-.999.904-1.816 1.195-1.816.649 0-2.41-8.036-4.213-10.843-2.434m-190.991 3.714c-3.492 2.446-2.663 7.44 1.56 9.404 3.905 1.815 3.735 2.951-.786 5.248-6.754 3.433-18.94 1.327-18.94-3.274 0-1.439-.678-1.974-2.5-1.974-5.203 0-2.106 8.013 4.099 10.606 4.792 2.002 14.074 1.726 19.13-.57 7.849-3.563 10.945-13.453 5.816-18.581-2.851-2.852-5.191-3.092-8.379-.859m92.8 13.468c-.82 1.532-.798 2.434.087 3.5 2.566 3.092 8.947.882 8.947-3.099 0-2.205-.417-2.465-3.965-2.465-2.982 0-4.238.511-5.069 2.064"/><path fill="#1976D2" fill-opacity=".266" fill-rule="evenodd" d="M19.326 94.044C9.037 96.079 1 103.274 1 110.45c0 2.06.485 2.55 2.525 2.55 2.007 0 2.648-.617 3.126-3.007.816-4.077 6.21-8.573 12.585-10.489 2.962-.891 12.46-2.002 21.722-2.542C59.462 95.883 63.86 95.06 57.5 93.866c-5.306-.996-32.885-.867-38.174.178m187.366 18.725c-2.65.586-1.901 5.63.896 6.029 2.51.359 4.677-1.944 3.852-4.094-.707-1.843-2.276-2.482-4.748-1.935M15.39 114.427c-.302.785-.4 2.473-.219 3.75.284 2.006.978 2.365 5.079 2.628l4.75.305V113h-4.531c-3.003 0-4.717.481-5.079 1.427M35 117v4h9v-8h-9v4m18.78 11.25c-.52 16.265-1.531 20.447-5.901 24.404-3.272 2.963-9.01 4.342-17.879 4.297-17.3-.089-22.757-5.97-23.759-25.607L5.713 121H2.856C.145 121 0 121.224 0 125.428c0 7.279 2.033 19.798 3.91 24.072 2.248 5.121 7.889 10.066 13.327 11.685 5.54 1.649 22.2 1.616 27.038-.054 5.063-1.747 9.351-5.506 11.986-10.507 1.923-3.649 2.218-6.055 2.557-20.874l.384-16.75h-4.934l-.488 15.25m26.839-14.259c-6.75 2.123-9.867 8.008-9.806 18.516.061 10.595 4.6 16.446 13.404 17.281 3.832.363 6.23 1.278 8.731 3.332 3.266 2.681 3.548 2.741 5.32 1.137 1.815-1.642 1.775-1.774-1.291-4.276-2.955-2.412-3.048-2.677-1.415-4.031 2.896-2.402 4.438-7.504 4.438-14.683 0-10.704-4.23-16.693-12.5-17.697-2.2-.267-5.296-.078-6.881.421M108 119.5c0 3.067-.31 3.5-2.5 3.5-3.323 0-3.545 3.712-.25 4.18 2.128.303 2.277.876 2.75 10.61.556 11.445.987 12.169 7.25 12.195 3.337.013 3.75-.26 3.75-2.485 0-2-.5-2.5-2.5-2.5-2.481 0-2.5-.067-2.5-9s.019-9 2.5-9c1.833 0 2.5-.533 2.5-2s-.667-2-2.5-2c-2.19 0-2.5-.433-2.5-3.5 0-3.222-.238-3.5-3-3.5s-3 .278-3 3.5m-27.774.504c-4.818 4.489-5.25 17.532-.753 22.759 2.911 3.385 8.57 3.638 11.685.524 2.601-2.602 3.941-10.28 2.841-16.291-1.426-7.802-8.855-11.573-13.773-6.992m107.274 2.745c-1.1.256-2.636.98-3.413 1.609-1.069.865-1.514.839-1.833-.108-.231-.687-1.733-1.25-3.337-1.25H176v27h6v-9.309c0-9.818.772-11.977 4.699-13.141 1.516-.45 2.836-.015 4.25 1.399 1.78 1.78 2.051 3.305 2.051 11.551v9.5h6.216l-.365-11.479c-.313-9.878-.642-11.743-2.357-13.378-2.216-2.111-5.947-3.105-8.994-2.394m41 0c-1.1.256-2.636.98-3.413 1.609-1.069.865-1.514.839-1.833-.108-.231-.687-1.508-1.25-2.837-1.25H218v27h6v-10.525c0-10.378.036-10.538 2.565-11.5 2.9-1.102 5.83.006 6.817 2.579.34.885.618 5.623.618 10.528V150h6v-9.977c0-9.539.11-10.049 2.5-11.615 2.316-1.517 2.684-1.517 5 0 2.39 1.566 2.5 2.076 2.5 11.615V150h6.172l-.336-11.475c-.298-10.179-.58-11.719-2.5-13.636-2.762-2.759-9.495-2.96-12.357-.37-1.78 1.611-2.155 1.638-3.729.27-2.062-1.791-5.94-2.696-8.75-2.04m-102.865 2.324c-3.284 2.583-3.538 5.927-.449 5.927 1.202 0 3.233-.985 4.514-2.188 3.152-2.961 7.646-1.601 8.116 2.456.305 2.627.14 2.732-4.299 2.732-5.073 0-9.929 2.026-10.896 4.545-2.296 5.983 1.41 11.455 7.759 11.455 2.063 0 4.713-.515 5.888-1.143 1.603-.858 2.232-.858 2.518 0 .209.628 1.746 1.143 3.414 1.143 2.658 0 2.959-.279 2.43-2.25-.331-1.238-.609-6.208-.616-11.045-.013-7.996-.237-9.019-2.469-11.25-3.298-3.299-11.939-3.506-15.91-.382m26.82.382c-5.093 5.092-2.014 11.47 6.286 13.022 4.513.843 6.259 2.134 6.259 4.626 0 3.762-8.004 3.626-10.036-.171-.593-1.107-2.087-1.932-3.499-1.932-3.512 0-3.207 3.198.612 6.411 5.731 4.823 16.642 3.087 18.963-3.016 1.472-3.872-.672-7.109-5.939-8.965-8.153-2.874-9.101-3.364-9.101-4.709 0-3.783 6.142-5.067 8.232-1.721 1.527 2.444 6.768 2.797 6.768.455 0-.85-1.105-2.65-2.455-4-2.02-2.021-3.442-2.455-8.045-2.455s-6.025.434-8.045 2.455M205 136.5V150h6v-27h-6v13.5m-168.964-9.038c-3.217 3.424-1.998 7.373 2.769 8.975l3.306 1.11-2.306 2.112c-2.966 2.716-5.794 3.541-11.982 3.493-5.673-.044-9.823-2.23-9.823-5.175 0-1.442-.676-1.977-2.5-1.977-2.907 0-3.205 1.736-1.021 5.959 4.564 8.827 25.524 7.457 30.738-2.009 2.106-3.825 1.905-10.278-.39-12.522-2.759-2.696-6.24-2.682-8.791.034M131 138.29c-5.721 2.884-2.023 9.261 3.769 6.498 2.006-.956 2.814-2.163 3.044-4.545.272-2.816.009-3.241-2-3.228-1.272.008-3.438.582-4.813 1.275"/><path fill="#1976D2" fill-opacity=".377" fill-rule="evenodd" d="M24.5 93.601c-11.838 1.727-18.313 5.151-21.48 11.36C.245 110.401.36 113 3.375 113c1.796 0 2.51-.676 2.93-2.777.904-4.516 4.38-7.962 10.251-10.158C22.129 97.98 38.549 96.039 51 95.993c3.575-.013 7.175-.46 8-.993 1.059-.685-.291-.974-4.594-.985-3.352-.008-10.777-.203-16.5-.433-5.723-.231-11.756-.222-13.406.019m31.856 20.205c-2.066.294-2.159.862-2.519 15.5-.451 18.297-1.681 21.855-8.799 25.444-3.751 1.892-6.075 2.25-14.593 2.25-8.666 0-10.764-.335-14.513-2.318-6.083-3.216-8.914-8.938-9.55-19.3C5.589 122.462 5.214 121 2.703 121c-2.181 0-2.199.126-1.526 10.75.771 12.18 1.71 15.97 5.303 21.398 3.948 5.968 9.234 8.155 20.932 8.665 13.18.575 19.534-.888 24.521-5.644 5.079-4.845 6.205-9.02 6.788-25.169.596-16.49.444-17.595-2.365-17.194m149.353-.182c-1.245 1.245-.761 4.142.791 4.738 2.456.942 4.631-.442 4.303-2.739-.3-2.103-3.668-3.424-5.094-1.999M16 117c0 2.889.167 3 4.5 3s4.5-.111 4.5-3-.167-3-4.5-3-4.5.111-4.5 3m19 0c0 2.889.167 3 4.5 3s4.5-.111 4.5-3-.167-3-4.5-3-4.5.111-4.5 3m73 3c0 2.533-.389 3-2.5 3-1.833 0-2.5.533-2.5 2s.667 2 2.5 2c2.487 0 2.5.048 2.5 9.277 0 11.438 1.29 13.991 6.837 13.528 4.294-.359 5.817-3.433 1.971-3.978-2.196-.311-2.322-.775-2.596-9.577-.271-8.734-.173-9.25 1.75-9.25 1.371 0 2.038-.654 2.038-2 0-1.289-.667-2-1.875-2-1.283 0-2.064-.947-2.475-3-.477-2.383-1.119-3-3.125-3-2.139 0-2.525.459-2.525 3m19.5 4.155c-2.412 1.319-4.5 3.809-4.5 5.366 0 1.764 4.344 1.188 5.807-.771 1.496-2.004 6.214-2.329 7.993-.55.66.66 1.2 2.179 1.2 3.376 0 1.924-.658 2.231-5.669 2.646-4.598.382-6.111.983-8 3.18-3.004 3.491-2.96 7.06.124 10.143 2.708 2.709 8.087 3.306 11.813 1.312 1.603-.858 2.232-.858 2.518 0 .209.628 1.741 1.143 3.404 1.143 2.347 0 2.888-.354 2.417-1.582-.334-.87-.607-5.629-.607-10.577 0-8.608-.126-9.12-2.923-11.918-2.346-2.346-3.778-2.917-7.25-2.893-2.38.017-5.227.523-6.327 1.125m25.577 1.434c-5.858 4.929-3.328 10.033 6.37 12.853 3.106.903 5.902 2.303 6.212 3.112 1.589 4.14-7.439 6.372-9.891 2.446-1.117-1.789-6.768-2.987-6.768-1.434 0 1.716 2.427 4.603 4.98 5.924 5.474 2.831 14.811 1.103 16.399-3.035 2.105-5.485-.18-8.467-8.322-10.861-6.029-1.773-7.392-3.099-5.952-5.79 1.51-2.821 8.895-2.155 8.895.803 0 .881 1.102 1.393 3 1.393 3.923 0 3.893-2.071-.077-5.411-2.277-1.916-4.206-2.589-7.423-2.589-3.217 0-5.146.673-7.423 2.589M177 136.5V150h2.5c2.497 0 2.5-.01 2.5-9.845 0-10.596 1.12-13.155 5.757-13.155 4.269 0 5.243 2.429 5.243 13.071 0 9.924.001 9.929 2.5 9.929h2.5v-11.5c0-10.167-.232-11.732-2-13.5-2.443-2.443-8.592-2.675-11.777-.443-2.012 1.409-2.223 1.409-2.223 0 0-.994-.904-1.557-2.5-1.557H177v13.5m28 0V150h6v-27h-6v13.5m13 0V150h2.5c2.497 0 2.5-.01 2.5-9.845 0-10.596 1.12-13.155 5.757-13.155 4.269 0 5.243 2.429 5.243 13.071 0 9.924.001 9.929 2.5 9.929 2.491 0 2.5-.033 2.5-9.5 0-8.167.281-9.781 2-11.5 2.233-2.233 4.195-2.501 7.066-.965 1.723.922 1.934 2.177 1.934 11.5V150h5v-11.5c0-10.167-.232-11.732-2-13.5-2.59-2.59-8.945-2.675-12.05-.161-2.205 1.786-2.325 1.786-4.111 0-2.284-2.284-8.542-2.436-11.616-.282-2.012 1.409-2.223 1.409-2.223 0 0-.994-.904-1.557-2.5-1.557H218v13.5m-181.722-9.25c-2.98 3.851-1.144 8.75 3.279 8.75 2.716 0 2.877.321 1.472 2.945-1.151 2.152-7.942 5.057-11.799 5.049-5.825-.011-10.416-2.025-11.566-5.073-1.53-4.053-3.881-3.852-3.477.297.927 9.523 21.859 11.458 29.226 2.703 3.252-3.865 3.665-11.636.758-14.266-2.159-1.954-6.522-2.178-7.893-.405m93.318 11.056c-2.154 1.576-1.817 5.538.601 7.053 1.146.719 2.607.746 4.5.084 2.298-.803 2.859-1.652 3.113-4.711.302-3.632.221-3.732-3.059-3.732-1.853 0-4.172.588-5.155 1.306"/></svg>